<svg width="1017" height="633" viewBox="0 0 1017 633" fill="none" xmlns="http://www.w3.org/2000/svg">
<path d="M910.433 147.258C933.142 206.646 899.826 300.534 904.91 359.186C913.862 462.455 963.642 512.298 883.212 577.695C802.782 643.092 629.234 554.33 509.421 583.961C465.789 594.752 252.954 633.644 156.508 595.272C22.8481 542.094 111.469 442.547 77.9855 307.129C22.6226 83.2268 104.939 59.7472 454.57 20.8411C784.622 -15.8863 882.046 73.024 910.433 147.258Z" fill="#B3DDCC"/>
<circle cx="886.924" cy="537.924" r="55.9244" transform="rotate(90 886.924 537.924)" fill="#E298AB"/>
<ellipse cx="864.252" cy="15.6758" rx="15.6758" ry="15.2521" transform="rotate(90 864.252 15.6758)" fill="#FFF385"/>
<ellipse cx="1001.25" cy="412.676" rx="15.6758" ry="15.2521" transform="rotate(90 1001.25 412.676)" fill="#FFF385"/>
<circle cx="95.6561" cy="79.2521" r="15.2521" transform="rotate(90 95.6561 79.2521)" fill="#FFF385"/>
<circle cx="15.2518" cy="285.252" r="15.2521" transform="rotate(90 15.2518 285.252)" fill="#FFF385"/>
<circle cx="125.421" cy="209.42" r="25.4202" transform="rotate(90 125.421 209.42)" fill="#E298AB"/>
<circle cx="215.421" cy="607.42" r="25.4202" transform="rotate(90 215.421 607.42)" fill="#E298AB"/>
<circle cx="893.421" cy="99.4202" r="25.4202" transform="rotate(90 893.421 99.4202)" fill="#E298AB"/>
<circle cx="84.2518" cy="591.252" r="15.2521" transform="rotate(90 84.2518 591.252)" fill="#FFF385"/>
</svg>
