<svg width="56" height="55" viewBox="0 0 56 55" fill="none" xmlns="http://www.w3.org/2000/svg">
<g clip-path="url(#clip0)">
<path d="M27.1229 22.6981C21.9754 22.4318 1.68095 29.0676 8.99484 45.1277C15.3038 59.0035 24.3164 48.4959 27.9733 47.5895C34.7009 45.902 37.9124 59.8271 47.2204 53.1242C57.3654 45.8125 45.1927 23.6336 27.1229 22.6981Z" fill="#B6CBDB"/>
<path d="M7.307 25.8359C7.307 25.8359 12.4276 27.2616 12.3381 20.8854C12.2486 14.5093 3.33673 8.71501 0.657811 13.6051C-2.02111 18.4952 4.15585 26.1963 7.307 25.8359Z" fill="#B6CBDB"/>
<path d="M16.7419 18.7994C16.7419 18.7994 19.3582 22.4698 23.8634 18.6293C28.3685 14.7888 25.938 1.32038 19.9401 0.0917009C13.9422 -1.13698 9.5959 10.3755 16.7419 18.7994Z" fill="#B6CBDB"/>
<path d="M30.271 16.5347C30.271 16.5347 33.4378 22.8437 38.1422 19.8157C42.8465 16.7876 43.3993 3.32587 38.1422 1.76149C32.885 0.197103 25.9359 7.96978 30.271 16.5347Z" fill="#B6CBDB"/>
<path d="M42.7846 23.3962C44.2528 27.4941 48.138 27.9327 53.0146 24.3944C57.8913 20.8561 56.7544 12.168 49.8814 13.39C43.0084 14.612 42.3549 22.1989 42.7846 23.3962Z" fill="#B6CBDB"/>
</g>
<defs>
<clipPath id="clip0">
<rect width="56" height="54.9481" fill="white"/>
</clipPath>
</defs>
</svg>
