<svg width="1817" height="1858" viewBox="0 0 1817 1858" fill="none" xmlns="http://www.w3.org/2000/svg">
<path d="M771.74 311.708C947.241 348.756 1009.74 327.208 1276.24 311.708C1387.74 305.223 1476.43 329.277 1522.66 450.029C1602.74 659.208 1442.74 777.907 1426.32 1038.81C1410.64 1287.81 1522.66 1430.21 1426.32 1525.21C1286.44 1663.13 1174.69 1526.32 571.116 1551.88C121.17 1570.93 527.206 1209.66 396.583 801.659C238.011 306.353 406.321 234.567 771.74 311.708Z" fill="#B3DDCC"/>
<circle cx="785.759" cy="453.956" r="42" transform="rotate(48.9453 785.759 453.956)" fill="#E298AB"/>
<ellipse cx="629.964" cy="302.236" rx="11.7727" ry="11.4545" transform="rotate(48.9453 629.964 302.236)" fill="#FFF385"/>
<circle cx="317.559" cy="506.462" r="11.4545" transform="rotate(48.9453 317.559 506.462)" fill="#FFF385"/>
<circle cx="373.674" cy="575.734" r="19.0909" transform="rotate(48.9453 373.674 575.734)" fill="#E298AB"/>
<circle cx="684.846" cy="707.25" r="11.4545" transform="rotate(48.9453 684.846 707.25)" fill="#FFF385"/>
<circle cx="417.414" cy="866.176" r="42" transform="rotate(-74.2676 417.414 866.176)" fill="#E298AB"/>
<ellipse cx="349.044" cy="1097.15" rx="11.7727" ry="11.4545" transform="rotate(-74.2676 349.044 1097.15)" fill="#FFF385"/>
<circle cx="717.799" cy="1229.13" r="11.4545" transform="rotate(-74.2676 717.799 1229.13)" fill="#FFF385"/>
<circle cx="745.019" cy="1144.24" r="19.0909" transform="rotate(-74.2676 745.019 1144.24)" fill="#E298AB"/>
<circle cx="684.606" cy="811.861" r="11.4545" transform="rotate(-74.2676 684.606 811.861)" fill="#FFF385"/>
<circle cx="1206.03" cy="1476.77" r="42" transform="rotate(-171.792 1206.03 1476.77)" fill="#E298AB"/>
<ellipse cx="1443.97" cy="1514.31" rx="11.7727" ry="11.4545" transform="rotate(-171.792 1443.97 1514.31)" fill="#FFF385"/>
<circle cx="1526.52" cy="1131.45" r="11.4545" transform="rotate(-171.792 1526.52 1131.45)" fill="#FFF385"/>
<circle cx="1438.8" cy="1115.58" r="19.0909" transform="rotate(-171.792 1438.8 1115.58)" fill="#E298AB"/>
<circle cx="1117.19" cy="1218.99" r="11.4545" transform="rotate(-171.792 1117.19 1218.99)" fill="#FFF385"/>
<circle cx="1426.78" cy="359.416" r="42" transform="rotate(17.9018 1426.78 359.416)" fill="#E298AB"/>
<ellipse cx="1183.56" cy="290.35" rx="11.7727" ry="11.4545" transform="rotate(17.9018 1183.56 290.35)" fill="#FFF385"/>
<circle cx="1037.72" cy="653.846" r="11.4545" transform="rotate(17.9018 1037.72 653.846)" fill="#FFF385"/>
<circle cx="1121.52" cy="684.26" r="19.0909" transform="rotate(17.9018 1121.52 684.26)" fill="#E298AB"/>
<circle cx="1455.95" cy="636.472" r="11.4545" transform="rotate(17.9018 1455.95 636.472)" fill="#FFF385"/>
</svg>
