<svg width="330" height="267" viewBox="0 0 330 267" fill="none" xmlns="http://www.w3.org/2000/svg">
<circle cx="299.001" cy="203.021" r="30.4538" transform="rotate(90 299.001 203.021)" fill="#E298AB"/>
<path d="M281.4 73.5409L302.756 140.915C311.037 167.039 317.378 208.697 291.446 234.135C265.513 259.572 176.907 246.788 162.416 246.788C147.924 246.788 99.8727 255.037 67.8385 243.35C35.8043 231.663 7.58373 190.414 0.719263 140.915C-6.14518 91.4155 35.8044 35.0416 140.297 6.85459C244.789 -21.3324 272.247 44.6664 281.4 73.5409Z" fill="#B3DDCC"/>
<ellipse cx="301.309" cy="28.373" rx="8.53629" ry="8.30558" transform="rotate(90 301.309 28.373)" fill="#FFF385"/>
<circle cx="17.9952" cy="8.76236" r="8.30558" transform="rotate(90 17.9952 8.76236)" fill="#FFF385"/>
<circle cx="15.6876" cy="73.3614" r="13.8426" transform="rotate(90 15.6876 73.3614)" fill="#E298AB"/>
<circle cx="38.3058" cy="258.306" r="8.30558" transform="rotate(90 38.3058 258.306)" fill="#FFF385"/>
</svg>
