<svg width="54" height="56" viewBox="0 0 54 56" fill="none" xmlns="http://www.w3.org/2000/svg">
<path d="M2.53128e-05 29.0463C-0.000197951 25.5074 0.697225 22.0031 2.05247 18.7334C3.40772 15.4638 5.39426 12.4929 7.89865 9.99039C10.403 7.48784 13.3763 5.50265 16.6485 4.14816C19.9208 2.79368 23.4281 2.09641 26.97 2.09619L2.53128e-05 29.0463ZM26.97 2.09619C30.5121 2.09619 34.0196 2.79329 37.292 4.14768C40.5645 5.50207 43.5379 7.48722 46.0425 9.98979C48.5471 12.4924 50.5338 15.4633 51.8891 18.733C53.2445 22.0028 53.942 25.5072 53.9417 29.0463L26.97 2.09619ZM46.4121 47.719C51.2509 42.7061 53.9508 36.0107 53.9417 29.0463L46.4121 47.719ZM2.53128e-05 29.0463C-0.00963727 36.0849 2.7474 42.8459 7.67757 47.8736Z" fill="#FDFFFD"/>
<path d="M53.9417 29.046C53.9508 36.0105 51.2509 42.7059 46.4121 47.7188L46.3917 31.2627C47.4068 30.19 48.0892 28.8466 48.3567 27.3948C48.6241 25.9429 48.465 24.4448 47.8987 23.0813C47.3323 21.7179 46.3829 20.5474 45.1652 19.7114C43.9474 18.8754 42.5134 18.4096 41.0365 18.3703C41.1501 17.8514 41.2071 17.3218 41.2065 16.7906C41.1949 15.1376 40.652 13.5321 39.6578 12.2108C38.6637 10.8895 37.2709 9.92238 35.6849 9.45195C34.0989 8.98152 32.4035 9.03273 30.8488 9.59802C29.2941 10.1633 27.9624 11.2128 27.0499 12.5916C26.0701 11.0836 24.5926 9.96603 22.874 9.43292C21.1554 8.89982 19.3042 8.98484 17.6418 9.67324C15.9794 10.3616 14.6108 11.6099 13.7735 13.2014C12.9362 14.7929 12.6832 16.6271 13.0583 18.3856C11.119 18.5192 9.30238 19.382 7.97432 20.8003C6.64626 22.2187 5.90542 24.0871 5.90099 26.0293C5.89641 27.8331 6.53532 29.5796 7.70307 30.9553L7.67757 47.8853C4.58829 44.725 2.324 40.8544 1.08405 36.6142C-0.155895 32.3739 -0.333475 27.8942 0.566948 23.5692C1.46737 19.2443 3.41818 15.2069 6.24763 11.8124C9.07708 8.41793 12.6984 5.77053 16.7927 4.10328C20.8871 2.43602 25.3288 1.80005 29.727 2.25135C34.1252 2.70265 38.3449 4.22738 42.0146 6.69131C45.6843 9.15523 48.6915 12.4828 50.7713 16.381C52.8512 20.2792 53.9399 24.6285 53.9417 29.046V29.046Z" fill="#E298AB"/>
<path d="M48.4777 26.0226C48.4694 24.0338 47.6892 22.1257 46.3013 20.7C44.9134 19.2743 43.026 18.4422 41.0364 18.3789C41.15 17.86 41.2071 17.3303 41.2065 16.7992C41.1948 15.1462 40.6519 13.5407 39.6578 12.2194C38.6636 10.8981 37.2709 9.93097 35.6849 9.46054C34.0988 8.99011 32.4035 9.04132 30.8488 9.60661C29.2941 10.1719 27.9624 11.2214 27.0499 12.6002C26.0699 11.0941 24.5934 9.97805 22.8762 9.4455C21.159 8.91295 19.3095 8.99747 17.6482 9.68442C15.9868 10.3714 14.6184 11.6175 13.7801 13.2067C12.9418 14.7959 12.6864 16.6281 13.0583 18.3857C11.119 18.5193 9.30236 19.3821 7.97431 20.8004C6.64625 22.2188 5.9054 24.0872 5.90098 26.0294C5.8964 27.8332 6.5353 29.5797 7.70306 30.9554L7.67756 47.8854C8.44357 48.6706 9.25718 49.4081 10.1138 50.0936V50.0936C14.9294 53.9433 20.9201 56.0278 27.0875 55.9997C33.2548 55.9716 39.2262 53.8325 44.0065 49.939C44.0065 49.939 44.0065 49.939 44.0167 49.939C44.8584 49.2512 45.6583 48.5139 46.4121 47.7308L46.3917 31.2747C47.7365 29.8568 48.4835 27.9761 48.4777 26.0226ZM13.6108 29.1039H13.5462C13.1415 29.0996 12.7415 29.0158 12.3692 28.8571C11.9968 28.6984 11.6594 28.468 11.3762 28.1791C11.093 27.8901 10.8695 27.5483 10.7185 27.173C10.5676 26.7977 10.492 26.3965 10.4963 25.992C10.5005 25.5876 10.5845 25.188 10.7433 24.816C10.9021 24.444 11.1327 24.1069 11.4219 23.8239C11.7111 23.5409 12.0533 23.3177 12.4288 23.1668C12.8044 23.016 13.2061 22.9405 13.6108 22.9447C14.1723 22.9429 14.724 23.091 15.2088 23.3739C15.6937 23.6567 16.094 24.0639 16.3683 24.5533C16.62 25.0027 16.7518 25.5093 16.7509 26.0243C16.7471 26.4325 16.6629 26.836 16.503 27.2117C16.3432 27.5874 16.1108 27.9279 15.8192 28.2139C15.5276 28.4999 15.1825 28.7257 14.8036 28.8784C14.4247 29.0311 14.0194 29.1077 13.6108 29.1039V29.1039ZM17.4598 16.7907C17.4598 15.9586 17.7906 15.1606 18.3795 14.5723C18.9684 13.9839 19.767 13.6534 20.5998 13.6534C21.4326 13.6534 22.2313 13.9839 22.8202 14.5723C23.409 15.1606 23.7399 15.9586 23.7399 16.7907C23.7403 17.0014 23.7181 17.2115 23.6736 17.4175C23.5211 18.1171 23.1324 18.743 22.5727 19.1902C22.013 19.6375 21.3165 19.8788 20.5998 19.8737C19.9138 19.8755 19.2457 19.655 18.6957 19.2452V19.2452C18.3124 18.9608 18.0009 18.5907 17.7863 18.1645C17.5717 17.7383 17.4599 17.2678 17.4598 16.7907V16.7907ZM35.4993 29.1905C35.4945 29.205 35.4906 29.2198 35.4874 29.2347C35.4037 29.4962 35.2932 29.7484 35.1576 29.9872C35.1423 30.016 35.1287 30.0432 35.1117 30.0721C34.9036 30.4275 34.6421 30.7488 34.3364 31.025L27.5412 37.1994L27.4868 37.247L27.4341 37.1994L20.6338 31.0267C20.3277 30.7514 20.0667 30.4299 19.8603 30.0738C19.7983 29.972 19.7416 29.8671 19.6903 29.7595C19.6007 29.5758 19.5268 29.3849 19.4693 29.1888C19.426 29.05 19.3908 28.9088 19.3639 28.7659C19.2469 28.1465 19.2752 27.5086 19.4465 26.902C19.6179 26.2955 19.9277 25.7369 20.3516 25.2701C20.6221 24.9741 20.9342 24.7189 21.2782 24.5126C22.0293 24.0638 22.9051 23.8682 23.776 23.9548C24.6469 24.0413 25.4669 24.4054 26.1149 24.9933L27.4868 26.24L28.8605 24.9933C29.5214 24.3942 30.3606 24.028 31.2496 23.951C32.1386 23.8739 33.0284 24.0902 33.7826 24.5666C34.5369 25.0431 35.114 25.7534 35.4256 26.5889C35.7372 27.4243 35.7661 28.3388 35.5078 29.1922L35.4993 29.1905ZM35.4364 19.2061C35.0197 19.5284 34.5289 19.7414 34.0088 19.8258C33.4887 19.9103 32.9557 19.8634 32.4583 19.6895C31.9609 19.5157 31.5149 19.2203 31.1609 18.8303C30.8069 18.4403 30.5561 17.9681 30.4314 17.4565C30.3801 17.2383 30.3544 17.0149 30.3549 16.7907C30.3549 15.9586 30.6857 15.1606 31.2746 14.5723C31.8634 13.9839 32.6621 13.6534 33.4949 13.6534C34.3277 13.6534 35.1264 13.9839 35.7152 14.5723C36.3041 15.1606 36.6349 15.9586 36.6349 16.7907C36.6346 17.2588 36.5264 17.7205 36.3185 18.14C36.1106 18.5595 35.8088 18.9255 35.4364 19.2095V19.2061ZM40.7644 29.0988H40.6896C40.2808 29.1028 39.8751 29.0263 39.4959 28.8736C39.1167 28.7209 38.7713 28.495 38.4795 28.2088C38.1877 27.9226 37.9553 27.5818 37.7954 27.2058C37.6356 26.8298 37.5514 26.426 37.5479 26.0175C37.5475 25.5052 37.678 25.0012 37.927 24.5533C38.2007 24.0618 38.6015 23.6526 39.0874 23.3685C39.5733 23.0843 40.1266 22.9357 40.6896 22.9379C41.5071 22.928 42.295 23.243 42.8801 23.8135C43.4651 24.384 43.7993 25.1634 43.8093 25.9802C43.8192 26.7969 43.504 27.5841 42.9329 28.1687C42.3619 28.7532 41.5819 29.0872 40.7644 29.0971V29.0988Z" fill="#FDFFFD"/>
<path d="M43.8297 26.0228C43.8231 26.8337 43.4993 27.6098 42.9274 28.1853C42.3556 28.7608 41.5811 29.0899 40.7695 29.1023H40.6947C40.2859 29.1064 39.8803 29.0298 39.501 28.8771C39.1218 28.7244 38.7764 28.4985 38.4846 28.2123C38.1928 27.9262 37.9604 27.5853 37.8005 27.2093C37.6407 26.8334 37.5566 26.4296 37.553 26.0211C37.5526 25.5087 37.6831 25.0047 37.9321 24.5569C38.2059 24.0653 38.6066 23.6561 39.0925 23.372C39.5784 23.0879 40.1317 22.9392 40.6947 22.9415C41.5192 22.9356 42.3122 23.2567 42.9 23.8344C43.4877 24.412 43.822 25.1991 43.8297 26.0228V26.0228Z" fill="#E298AB"/>
<path d="M36.6333 16.7906C36.634 17.258 36.527 17.7193 36.3206 18.1387C36.1142 18.5582 35.814 18.9245 35.4432 19.2095C35.0262 19.5333 34.5347 19.7475 34.0134 19.8326C33.4922 19.9177 32.958 19.871 32.4595 19.6966C31.9611 19.5223 31.5143 19.2259 31.16 18.8346C30.8057 18.4432 30.5552 17.9695 30.4314 17.4565C30.3801 17.2383 30.3544 17.0148 30.3549 16.7906C30.3549 15.9586 30.6857 15.1606 31.2746 14.5722C31.8634 13.9839 32.6621 13.6533 33.4949 13.6533C34.3277 13.6533 35.1264 13.9839 35.7153 14.5722C36.3041 15.1606 36.635 15.9586 36.635 16.7906H36.6333Z" fill="#E298AB"/>
<path d="M23.7399 16.7907C23.7403 17.0014 23.7181 17.2115 23.6736 17.4175C23.5211 18.1171 23.1324 18.743 22.5727 19.1902C22.013 19.6374 21.3165 19.8787 20.5998 19.8736C19.9138 19.8755 19.2457 19.655 18.6958 19.2452V19.2452C18.3131 18.9613 18.002 18.592 17.7874 18.1667C17.5729 17.7415 17.4607 17.272 17.4598 16.7958C17.4598 15.9637 17.7906 15.1657 18.3795 14.5773C18.9684 13.989 19.7671 13.6584 20.5998 13.6584C21.4326 13.6584 22.2313 13.989 22.8202 14.5773C23.4091 15.1657 23.7399 15.9637 23.7399 16.7958V16.7907Z" fill="#E298AB"/>
<path d="M16.7509 26.0226C16.7473 26.431 16.6633 26.8346 16.5035 27.2105C16.3438 27.5864 16.1115 27.9272 15.8198 28.2133C15.5282 28.4995 15.1831 28.7254 14.804 28.8782C14.425 29.031 14.0195 29.1077 13.6108 29.1039H13.5462C12.7288 29.0953 11.9482 28.7627 11.3762 28.1791C10.8043 27.5955 10.4877 26.8088 10.4963 25.992C10.5049 25.1753 10.8378 24.3954 11.4219 23.8239C12.006 23.2524 12.7934 22.9362 13.6108 22.9447C14.1723 22.9429 14.724 23.091 15.2088 23.3739C15.6937 23.6567 16.094 24.0639 16.3684 24.5533C16.6198 25.0022 16.7515 25.5082 16.7509 26.0226V26.0226Z" fill="#E298AB"/>
<path d="M35.4857 28.0101C35.4868 28.4125 35.4295 28.813 35.3157 29.1991C35.3104 29.2136 35.3058 29.2283 35.3021 29.2433C35.219 29.5047 35.109 29.7569 34.974 29.9957L34.9264 30.0807C34.7189 30.436 34.458 30.7574 34.1528 31.0336L27.3525 37.2063L27.2981 37.2539L27.2454 37.2063L20.4451 31.0336C20.1395 30.7578 19.8785 30.4364 19.6716 30.0807C19.6096 29.9789 19.5528 29.874 19.5016 29.7664C19.4115 29.5828 19.337 29.3918 19.2789 29.1957C19.2364 29.0564 19.2024 28.9137 19.1735 28.7727C19.1269 28.5229 19.103 28.2693 19.1021 28.0152C19.1028 27.226 19.3327 26.454 19.764 25.7928C20.1953 25.1317 20.8094 24.6098 21.5318 24.2906C22.2541 23.9713 23.0537 23.8684 23.8335 23.9944C24.6132 24.1204 25.3396 24.4697 25.9245 25.0001L27.2964 26.2469L28.6718 25.0001C29.2567 24.4703 29.983 24.1214 30.7624 23.9957C31.5419 23.8701 32.3411 23.9731 33.0631 24.2923C33.7852 24.6114 34.399 25.133 34.8302 25.7939C35.2614 26.4547 35.4915 27.2263 35.4925 28.0152L35.4857 28.0101Z" fill="#D80350"/>
</svg>
