<svg width="1440" height="724" viewBox="0 0 1440 724" fill="none" xmlns="http://www.w3.org/2000/svg">
<mask id="mask0" mask-type="alpha" maskUnits="userSpaceOnUse" x="0" y="0" width="1440" height="724">
<rect width="1440" height="724" fill="#C4C4C4"/>
</mask>
<g mask="url(#mask0)">
<ellipse cx="413.963" cy="333.316" rx="66.5" ry="66" transform="rotate(-75 413.963 333.316)" fill="#E298AB"/>
<mask id="mask1" mask-type="alpha" maskUnits="userSpaceOnUse" x="259" y="175" width="891" height="491">
<rect x="259" y="175.773" width="891" height="489.453" fill="#C4C4C4"/>
</mask>
<g mask="url(#mask1)">
<path d="M385.221 637.672L322.401 510.225C298.042 460.807 277.833 396.292 339.349 342.149C400.864 288.007 623.352 281.702 659.685 279.133C696.019 276.565 815.357 251.981 897.282 269.068C979.207 286.156 1055.64 361.501 1079.67 456.7C1103.69 551.898 1006.28 669.138 748.175 742.559C490.072 815.98 412.144 692.292 385.221 637.672Z" fill="#B3DDCC"/>
</g>
<circle cx="294.045" cy="305.046" r="18" transform="rotate(-75 294.045 305.046)" fill="#FFF385"/>
<ellipse cx="1042.53" cy="286.175" rx="18" ry="18.5" transform="rotate(-75 1042.53 286.175)" fill="#FFF385"/>
<circle cx="257.045" cy="537.046" r="18" transform="rotate(-75 257.045 537.046)" fill="#FFF385"/>
<ellipse cx="1073.26" cy="412.613" rx="30" ry="29.5" transform="rotate(-75 1073.26 412.613)" fill="#E298AB"/>
</g>
<g clip-path="url(#clip0)">
<path d="M714.36 244.289L715.766 254.997C715.92 256.171 716.344 257.031 717.038 257.579C717.729 258.11 718.629 258.303 719.736 258.157C720.86 258.01 721.687 257.59 722.218 256.899C722.747 256.19 722.935 255.25 722.781 254.076L721.375 243.368L724.87 242.909L726.272 253.593C726.465 255.063 726.307 256.353 725.797 257.462C725.301 258.553 724.55 259.425 723.543 260.078C722.553 260.729 721.405 261.14 720.1 261.312C718.811 261.481 717.604 261.379 716.479 261.006C715.371 260.63 714.445 259.978 713.701 259.051C712.955 258.106 712.485 256.899 712.292 255.428L710.89 244.745L714.36 244.289Z" fill="#B3DDCC"/>
<path d="M733.264 256.554L739.393 255.801L739.743 258.655L729.669 259.892L729.324 257.088L734.336 248.261L728.356 248.996L728.006 246.142L737.981 244.917L738.325 247.721L733.264 256.554Z" fill="#B3DDCC"/>
<path d="M757.91 242.493C759.6 242.311 761.016 242.686 762.156 243.619C763.31 244.534 763.988 245.919 764.188 247.775L765.06 255.853L761.58 256.228L760.759 248.623C760.643 247.546 760.281 246.755 759.674 246.25C759.064 245.73 758.287 245.52 757.343 245.622C756.398 245.724 755.676 246.095 755.175 246.736C754.689 247.358 754.504 248.208 754.62 249.285L755.441 256.891L751.961 257.267L751.14 249.661C751.024 248.584 750.662 247.793 750.055 247.289C749.445 246.768 748.668 246.558 747.724 246.66C746.763 246.764 746.032 247.136 745.531 247.777C745.045 248.399 744.86 249.249 744.976 250.326L745.797 257.932L742.317 258.308L740.831 244.537L744.311 244.162L744.491 245.827C744.875 245.199 745.398 244.682 746.058 244.275C746.735 243.867 747.496 243.617 748.341 243.526C749.418 243.41 750.404 243.538 751.299 243.911C752.193 244.267 752.917 244.842 753.472 245.637C753.834 244.794 754.411 244.086 755.204 243.514C756.014 242.941 756.916 242.6 757.91 242.493Z" fill="#B3DDCC"/>
<path d="M768.599 240.012C767.985 240.068 767.453 239.925 767.003 239.581C766.568 239.22 766.324 238.748 766.271 238.167C766.217 237.587 766.372 237.087 766.735 236.669C767.113 236.232 767.61 235.986 768.224 235.929C768.838 235.872 769.362 236.025 769.797 236.387C770.247 236.73 770.499 237.192 770.552 237.773C770.606 238.354 770.444 238.863 770.065 239.299C769.702 239.718 769.214 239.955 768.599 240.012ZM770.468 241.497L771.738 255.288L768.253 255.609L766.983 241.818L770.468 241.497Z" fill="#B3DDCC"/>
<path d="M786.283 254.321C785.153 254.404 784.124 254.279 783.197 253.946C782.269 253.597 781.513 253.092 780.93 252.434C780.364 251.773 780.024 251.021 779.912 250.177L783.427 249.918C783.533 250.445 783.823 250.867 784.297 251.183C784.789 251.498 785.375 251.63 786.056 251.58C786.721 251.531 787.227 251.36 787.573 251.067C787.936 250.773 788.102 250.418 788.071 250.003C788.038 249.554 787.781 249.239 787.299 249.057C786.834 248.857 786.092 248.661 785.075 248.469C784.026 248.295 783.16 248.1 782.475 247.883C781.807 247.665 781.212 247.299 780.69 246.786C780.184 246.272 779.897 245.549 779.828 244.618C779.772 243.854 779.937 243.14 780.323 242.476C780.725 241.812 781.32 241.266 782.107 240.841C782.911 240.414 783.87 240.16 784.984 240.078C786.63 239.956 787.973 240.275 789.015 241.034C790.056 241.776 790.677 242.842 790.88 244.231L787.539 244.477C787.449 243.932 787.184 243.517 786.745 243.232C786.322 242.929 785.77 242.802 785.088 242.852C784.456 242.899 783.975 243.051 783.643 243.31C783.327 243.567 783.185 243.903 783.216 244.319C783.25 244.784 783.509 245.124 783.993 245.34C784.475 245.538 785.216 245.726 786.215 245.903C787.231 246.079 788.072 246.276 788.74 246.494C789.408 246.712 789.995 247.087 790.502 247.618C791.025 248.131 791.328 248.844 791.412 249.757C791.471 250.555 791.299 251.286 790.897 251.951C790.511 252.614 789.916 253.159 789.112 253.586C788.323 253.995 787.38 254.24 786.283 254.321ZM788.557 236.857L785.016 239.148L781.152 237.402L780.965 234.859L784.838 236.729L788.37 234.313L788.557 236.857Z" fill="#B3DDCC"/>
<path d="M793.164 246.558C793.094 245.159 793.307 243.906 793.802 242.796C794.314 241.686 795.03 240.816 795.949 240.186C796.886 239.555 797.945 239.21 799.127 239.151C800.159 239.099 801.068 239.262 801.854 239.64C802.658 240.017 803.308 240.51 803.806 241.119L803.707 239.147L807.228 238.971L807.919 252.804L804.399 252.98L804.298 250.957C803.881 251.629 803.283 252.201 802.506 252.674C801.744 253.129 800.848 253.382 799.816 253.434C798.65 253.492 797.57 253.246 796.575 252.695C795.596 252.143 794.796 251.34 794.176 250.287C793.572 249.216 793.235 247.973 793.164 246.558ZM804.053 246.063C804.01 245.214 803.808 244.499 803.445 243.916C803.081 243.317 802.608 242.873 802.027 242.585C801.444 242.281 800.828 242.144 800.179 242.177C799.53 242.209 798.938 242.397 798.405 242.741C797.871 243.085 797.445 243.573 797.126 244.207C796.824 244.823 796.693 245.547 796.734 246.379C796.776 247.211 796.979 247.936 797.344 248.551C797.724 249.15 798.197 249.602 798.763 249.907C799.346 250.212 799.953 250.348 800.586 250.317C801.235 250.284 801.835 250.096 802.385 249.751C802.934 249.39 803.36 248.901 803.663 248.286C803.965 247.653 804.095 246.912 804.053 246.063Z" fill="#B3DDCC"/>
<path d="M814.342 240.711C814.775 240.066 815.377 239.524 816.149 239.086C816.937 238.631 817.839 238.39 818.855 238.362C820.038 238.33 821.112 238.593 822.078 239.15C823.06 239.707 823.841 240.519 824.42 241.587C825.015 242.638 825.333 243.871 825.371 245.287C825.41 246.704 825.161 247.969 824.624 249.084C824.104 250.182 823.369 251.044 822.419 251.67C821.485 252.296 820.427 252.625 819.244 252.657C818.228 252.685 817.323 252.501 816.528 252.106C815.751 251.71 815.112 251.202 814.611 250.582L814.845 259.154L811.346 259.249L810.789 238.807L814.288 238.712L814.342 240.711ZM821.797 245.385C821.775 244.552 821.58 243.84 821.214 243.25C820.864 242.643 820.402 242.188 819.826 241.887C819.268 241.586 818.664 241.444 818.014 241.461C817.381 241.479 816.786 241.661 816.228 242.01C815.687 242.342 815.25 242.82 814.917 243.446C814.601 244.072 814.454 244.801 814.476 245.634C814.499 246.467 814.686 247.187 815.036 247.795C815.402 248.402 815.865 248.864 816.424 249.182C816.999 249.484 817.603 249.626 818.236 249.608C818.886 249.591 819.481 249.408 820.022 249.059C820.579 248.711 821.016 248.224 821.333 247.598C821.666 246.972 821.821 246.234 821.797 245.385Z" fill="#B3DDCC"/>
<path d="M840.76 245.015C840.76 245.515 840.727 245.965 840.66 246.365H830.535C830.618 247.365 830.968 248.148 831.585 248.715C832.202 249.282 832.96 249.565 833.86 249.565C835.16 249.565 836.085 249.007 836.635 247.89H840.41C840.01 249.223 839.243 250.323 838.11 251.19C836.977 252.04 835.585 252.465 833.935 252.465C832.602 252.465 831.402 252.173 830.335 251.59C829.285 250.99 828.46 250.148 827.86 249.065C827.277 247.982 826.985 246.732 826.985 245.315C826.985 243.882 827.277 242.623 827.86 241.54C828.443 240.457 829.26 239.623 830.31 239.04C831.36 238.457 832.568 238.165 833.935 238.165C835.252 238.165 836.427 238.448 837.46 239.015C838.51 239.582 839.318 240.39 839.885 241.44C840.468 242.473 840.76 243.665 840.76 245.015ZM837.135 244.015C837.118 243.115 836.793 242.398 836.16 241.865C835.527 241.315 834.752 241.04 833.835 241.04C832.968 241.04 832.235 241.307 831.635 241.84C831.052 242.357 830.693 243.082 830.56 244.015H837.135Z" fill="#B3DDCC"/>
<path d="M862.688 239.3L861.99 253.132L858.47 252.955L858.558 251.207C858.078 251.784 857.463 252.228 856.713 252.541C855.981 252.837 855.19 252.964 854.341 252.922C853.259 252.867 852.313 252.594 851.504 252.102C850.695 251.594 850.071 250.887 849.633 249.98C849.213 249.058 849.033 247.981 849.095 246.749L849.505 238.635L853.001 238.811L852.616 246.426C852.561 247.525 852.793 248.388 853.312 249.015C853.832 249.625 854.566 249.954 855.515 250.002C856.48 250.051 857.252 249.798 857.831 249.243C858.41 248.671 858.728 247.836 858.783 246.738L859.168 239.122L862.688 239.3Z" fill="#B3DDCC"/>
<path d="M876.169 254.677C875.043 254.552 874.054 254.242 873.203 253.745C872.354 253.233 871.703 252.599 871.25 251.845C870.813 251.092 870.617 250.291 870.66 249.44L874.164 249.827C874.172 250.365 874.38 250.832 874.789 251.229C875.214 251.628 875.767 251.865 876.446 251.94C877.109 252.014 877.637 251.938 878.03 251.713C878.441 251.49 878.669 251.171 878.714 250.757C878.764 250.31 878.569 249.953 878.128 249.686C877.707 249.405 877.014 249.077 876.049 248.702C875.049 248.34 874.233 247.99 873.599 247.652C872.983 247.316 872.464 246.848 872.044 246.248C871.641 245.65 871.49 244.887 871.592 243.96C871.677 243.198 871.969 242.526 872.469 241.944C872.986 241.363 873.67 240.936 874.522 240.661C875.391 240.388 876.38 240.313 877.49 240.435C879.13 240.616 880.393 241.175 881.279 242.111C882.166 243.031 882.583 244.192 882.529 245.595L879.199 245.227C879.21 244.675 879.026 244.218 878.646 243.858C878.285 243.483 877.765 243.258 877.086 243.183C876.456 243.113 875.955 243.175 875.581 243.369C875.224 243.564 875.023 243.869 874.977 244.283C874.926 244.747 875.119 245.129 875.555 245.428C875.993 245.711 876.688 246.031 877.637 246.388C878.604 246.746 879.396 247.093 880.012 247.43C880.629 247.766 881.139 248.241 881.54 248.856C881.96 249.455 882.128 250.212 882.044 251.125C881.956 251.92 881.654 252.608 881.137 253.188C880.637 253.77 879.953 254.197 879.084 254.47C878.234 254.728 877.262 254.797 876.169 254.677Z" fill="#B3DDCC"/>
<path d="M890.32 253.116L895.472 243.186L899.149 243.781L891.878 256.635L887.683 255.956L884.86 241.469L888.562 242.068L890.32 253.116Z" fill="#B3DDCC"/>
<path d="M904.32 259.359C903.022 259.055 901.92 258.496 901.015 257.685C900.114 256.857 899.486 255.845 899.134 254.65C898.797 253.458 898.791 252.172 899.114 250.793C899.438 249.414 900.024 248.267 900.872 247.354C901.736 246.444 902.762 245.829 903.95 245.508C905.142 245.172 906.387 245.156 907.685 245.461C908.983 245.765 910.091 246.333 911.008 247.165C911.93 247.981 912.567 248.986 912.919 250.182C913.288 251.381 913.311 252.67 912.987 254.05C912.664 255.429 912.062 256.571 911.181 257.478C910.317 258.387 909.281 259.009 908.073 259.342C906.885 259.662 905.634 259.668 904.32 259.359ZM905.017 256.39C905.633 256.535 906.244 256.524 906.848 256.358C907.472 256.179 908.016 255.827 908.482 255.303C908.947 254.779 909.281 254.087 909.483 253.227C909.784 251.945 909.673 250.883 909.152 250.042C908.65 249.188 907.913 248.647 906.939 248.418C905.966 248.19 905.064 248.346 904.235 248.888C903.426 249.417 902.871 250.323 902.571 251.604C902.27 252.886 902.354 253.95 902.823 254.796C903.312 255.63 904.043 256.161 905.017 256.39Z" fill="#B3DDCC"/>
<path d="M919.636 247.108C919.03 246.925 918.583 246.59 918.295 246.102C918.027 245.603 917.978 245.075 918.147 244.517C918.316 243.958 918.647 243.553 919.141 243.302C919.655 243.04 920.215 243 920.822 243.183C921.412 243.361 921.841 243.7 922.108 244.198C922.38 244.681 922.432 245.202 922.263 245.76C922.094 246.318 921.761 246.731 921.262 246.999C920.769 247.25 920.226 247.286 919.636 247.108ZM916.147 264.622C915.704 266.09 915.019 267.032 914.092 267.449C913.177 267.886 912.041 267.9 910.685 267.49L909.201 267.042L910.061 264.194L911.018 264.483C911.529 264.637 911.919 264.642 912.189 264.497C912.455 264.369 912.655 264.081 912.79 263.634L917.46 248.174L920.81 249.186L916.147 264.622Z" fill="#B3DDCC"/>
<path d="M934.288 260.918C934.118 261.389 933.934 261.801 933.736 262.154L924.211 258.72C923.95 259.689 924.014 260.544 924.402 261.286C924.79 262.029 925.407 262.552 926.253 262.858C927.476 263.299 928.536 263.087 929.432 262.223L932.983 263.504C932.155 264.623 931.06 265.397 929.7 265.828C928.346 266.243 926.892 266.171 925.34 265.611C924.086 265.159 923.056 264.477 922.251 263.567C921.466 262.646 920.976 261.575 920.779 260.352C920.598 259.135 920.747 257.86 921.228 256.528C921.714 255.179 922.415 254.094 923.332 253.273C924.248 252.452 925.299 251.945 926.484 251.753C927.67 251.56 928.906 251.696 930.191 252.159C931.43 252.606 932.439 253.271 933.219 254.155C934.014 255.044 934.501 256.078 934.677 257.258C934.876 258.428 934.746 259.648 934.288 260.918ZM931.217 258.748C931.507 257.896 931.444 257.111 931.029 256.395C930.62 255.662 929.984 255.141 929.122 254.83C928.307 254.536 927.526 254.538 926.781 254.836C926.057 255.124 925.474 255.685 925.032 256.517L931.217 258.748Z" fill="#B3DDCC"/>
<path d="M947.163 261.649C947.879 261.172 948.65 260.894 949.475 260.816C950.316 260.745 951.16 260.905 952.007 261.297L950.467 264.633L949.627 264.246C948.628 263.785 947.764 263.67 947.032 263.902C946.317 264.14 945.69 264.842 945.152 266.007L942.26 272.272L939.083 270.806L944.887 258.23L948.064 259.697L947.163 261.649Z" fill="#B3DDCC"/>
<path d="M965.906 268.94L959.335 281.132L956.232 279.46L957.062 277.919C956.382 278.234 955.636 278.371 954.824 278.332C954.035 278.285 953.266 278.06 952.518 277.657C951.564 277.143 950.827 276.49 950.307 275.699C949.795 274.893 949.536 273.986 949.529 272.979C949.545 271.966 949.846 270.916 950.431 269.83L954.286 262.678L957.367 264.338L953.749 271.05C953.228 272.019 953.066 272.897 953.266 273.687C953.473 274.461 953.995 275.074 954.832 275.524C955.683 275.983 956.489 276.086 957.249 275.833C958.018 275.566 958.664 274.948 959.185 273.98L962.803 267.267L965.906 268.94Z" fill="#B3DDCC"/>
<path d="M968.83 287.019L967.987 279.523L964.85 284.519L961.886 282.658L971.725 266.991L974.689 268.853L969.091 277.766L976.153 275.264L980.007 277.683L971.145 280.325L972.683 289.439L968.83 287.019Z" fill="#B3DDCC"/>
<path d="M988.446 291.951C988.154 292.358 987.865 292.704 987.578 292.991L979.346 287.096C978.832 287.958 978.66 288.798 978.832 289.618C979.003 290.438 979.455 291.11 980.187 291.634C981.244 292.39 982.321 292.475 983.418 291.887L986.487 294.085C985.386 294.936 984.122 295.384 982.696 295.429C981.28 295.46 979.901 294.996 978.559 294.035C977.475 293.259 976.669 292.323 976.142 291.228C975.637 290.129 975.456 288.964 975.599 287.734C975.756 286.513 976.246 285.327 977.071 284.175C977.906 283.01 978.875 282.157 979.98 281.616C981.085 281.074 982.234 280.872 983.428 281.009C984.621 281.146 985.773 281.613 986.884 282.408C987.955 283.175 988.745 284.089 989.256 285.152C989.779 286.224 989.966 287.352 989.815 288.535C989.688 289.715 989.232 290.854 988.446 291.951ZM986.08 289.028C986.591 288.286 986.744 287.514 986.539 286.712C986.345 285.896 985.875 285.221 985.129 284.688C984.425 284.183 983.673 283.973 982.875 284.057C982.1 284.138 981.386 284.519 980.735 285.2L986.08 289.028Z" fill="#B3DDCC"/>
<path d="M987.114 300.29C986.616 299.899 986.322 299.424 986.231 298.865C986.164 298.303 986.31 297.793 986.67 297.334C987.031 296.875 987.487 296.619 988.038 296.565C988.613 296.507 989.149 296.674 989.647 297.066C990.132 297.447 990.408 297.918 990.476 298.48C990.554 299.028 990.412 299.532 990.052 299.99C989.692 300.449 989.231 300.712 988.669 300.78C988.118 300.834 987.599 300.671 987.114 300.29Z" fill="#B3DDCC"/>
</g>
<defs>
<clipPath id="clip0">
<rect width="646.33" height="114.17" fill="white" transform="translate(387 228)"/>
</clipPath>
</defs>
</svg>
