<svg width="1010" height="818" viewBox="0 0 1010 818" fill="none" xmlns="http://www.w3.org/2000/svg">
<circle cx="662.5" cy="77.5" r="77.5" transform="rotate(90 662.5 77.5)" fill="#E298AB"/>
<path d="M922.383 321.411L984.947 511.428C1009.21 585.109 1027.4 680.117 951.43 751.859C875.459 823.6 616.264 810.027 573.809 810.027C531.355 810.027 390.585 833.295 296.738 800.333C202.892 767.37 120.217 651.033 100.107 511.428C79.9972 371.824 202.892 212.829 509.01 133.332C815.129 53.8352 895.569 239.975 922.383 321.411Z" fill="#B3DDCC"/>
<ellipse cx="905.5" cy="78" rx="21" ry="21.5" transform="rotate(90 905.5 78)" fill="#FFF385"/>
<circle cx="432" cy="763" r="35" transform="rotate(90 432 763)" fill="#E298AB"/>
<circle cx="21" cy="601" r="21" transform="rotate(90 21 601)" fill="#FFF385"/>
<ellipse cx="988.5" cy="797" rx="21" ry="21.5" transform="rotate(90 988.5 797)" fill="#FFF385"/>
</svg>
