<svg xmlns="http://www.w3.org/2000/svg" viewBox="0 0 445.63 641.09"><defs><style>.cls-1{fill:#2d2d2d;}.cls-2{fill:#e57396;}.cls-3{opacity:0.8;}.cls-4{fill:#fff;}</style></defs><title>srce</title><g id="Layer_2" data-name="Layer 2"><g id="Layer_2-2" data-name="Layer 2"><path class="cls-1" d="M3,633.2a90.12,90.12,0,0,0,12.57-4.54,124.84,124.84,0,0,0,12.05-6.1,123.91,123.91,0,0,0,21.7-15.7,83.34,83.34,0,0,0,16.45-20,56.05,56.05,0,0,0,7.4-23.44,116.46,116.46,0,0,0-.92-26.24c-.17-1.07-.32-2.14-.5-3.21l-.66-3.17-.32-1.58-.41-1.56-.82-3.12a99.36,99.36,0,0,0-4.44-12.09A125.82,125.82,0,0,0,51.82,489.9c-2.62-3.62-5.42-7.21-8.31-10.89s-5.87-7.44-8.79-11.59a65.65,65.65,0,0,1-7.95-14.31L26.05,451l-.35-1.09-.27-1.15-.51-2.31c-.14-.79-.21-1.6-.31-2.4a33.18,33.18,0,0,1-.15-4.89v-.62l.05-.53.11-1.06.22-2.13a42.32,42.32,0,0,1,6.07-17,39.89,39.89,0,0,1,6-7.12A43,43,0,0,1,44,405.28a59.83,59.83,0,0,1,15.2-6.46,112.59,112.59,0,0,1,15-3.06,274.13,274.13,0,0,1,29-2.12c9.46-.26,18.78-.36,27.93-.8a177,177,0,0,0,26.62-2.76,68.78,68.78,0,0,0,12.06-3.44,35.37,35.37,0,0,0,10-5.81,26,26,0,0,0,3.84-3.94l.8-1.13.41-.56.35-.6.71-1.19c.22-.42.41-.85.62-1.27a36.16,36.16,0,0,0,3.19-11.42v-.06a6.12,6.12,0,0,1,12.2.85,47.1,47.1,0,0,1-3,15.88c-.26.65-.5,1.31-.79,1.95l-.94,1.9-.47,1-.55.91-1.11,1.83a41,41,0,0,1-5.46,6.56A48.82,48.82,0,0,1,176,400.7a77.07,77.07,0,0,1-14.67,5.11c-19.67,4.72-38.83,4.84-57.36,6-9.24.53-18.37,1.06-27.05,2.4a93.14,93.14,0,0,0-12.47,2.7,44.43,44.43,0,0,0-10.59,4.5,22.12,22.12,0,0,0-7.11,6.68,23.55,23.55,0,0,0-3.29,9.29l-.14,1.37-.08.68,0,.34V440a12.73,12.73,0,0,0,.06,2.13c0,.36,0,.71.12,1.08l.24,1.12.11.57.19.58.36,1.18a47.74,47.74,0,0,0,5.59,10.25c4.87,7.13,11,14.52,16.59,22.53a134.09,134.09,0,0,1,14.58,26.18,119.87,119.87,0,0,1,4.82,14.44l.85,3.7.43,1.86.33,1.86.66,3.74c.18,1.25.31,2.5.47,3.76a130.15,130.15,0,0,1-.15,29.86,66.62,66.62,0,0,1-3.71,15.39,72.39,72.39,0,0,1-7,13.89A93,93,0,0,1,57.42,616.3a127.43,127.43,0,0,1-24.93,15.52A107.39,107.39,0,0,1,4.67,641a4,4,0,0,1-1.76-7.8Z"/><path class="cls-2" d="M250.86,132.11s85.08-127.67,162-73c83,59-61,219-210,245,0,0-185-163-122-257S250.86,37.11,250.86,132.11Z"/><path class="cls-1" d="M251.37,130.42c-.67-.62-2.34.84-1.91.58l.08-.12.15-.25.3-.49.6-1,1.23-1.92c.82-1.28,1.66-2.54,2.51-3.8,1.7-2.52,3.45-5,5.22-7.47,3.56-4.92,7.31-9.71,11.17-14.42s7.88-9.31,12.09-13.73,8.55-8.76,13.09-12.91c2.26-2.08,4.6-4.09,7-6.09s4.8-3.89,7.29-5.74a157.56,157.56,0,0,1,15.58-10.34,123.68,123.68,0,0,1,17.11-8.24,94.29,94.29,0,0,1,18.73-5,78.6,78.6,0,0,1,19.76-.47,75.57,75.57,0,0,1,19.35,4.8A82.53,82.53,0,0,1,418,53.35a68,68,0,0,1,14.75,13.93,60.51,60.51,0,0,1,9.69,18.35,65.79,65.79,0,0,1,3.16,20.28,89.08,89.08,0,0,1-2.31,19.81,114.08,114.08,0,0,1-5.91,18.51,178,178,0,0,1-18.29,33.22c-1.75,2.6-3.63,5.09-5.47,7.62s-3.79,5-5.77,7.36-4,4.79-6,7.15-4.11,4.66-6.25,6.9c-4.21,4.56-8.62,8.91-13.07,13.2S373.46,228,368.75,232c-2.35,2-4.74,3.94-7.13,5.89s-4.83,3.83-7.3,5.67c-4.89,3.74-9.92,7.3-15,10.79Q324,264.73,307.81,273.52a361.37,361.37,0,0,1-33.34,15.68c-5.69,2.31-11.44,4.46-17.27,6.4s-11.69,3.74-17.6,5.4-11.9,3-17.91,4.17-12.08,2.12-18.14,2.88l-.41.06a3.6,3.6,0,0,1-2.93-1h0C191.14,299.3,182.5,291.28,174,283s-16.71-16.82-24.72-25.58-15.8-17.72-23.27-27-14.69-18.74-21.48-28.56a358,358,0,0,1-19-30.51,233.23,233.23,0,0,1-15.14-32.92,166.06,166.06,0,0,1-5.35-17.54,126.28,126.28,0,0,1-3.19-18.26,107,107,0,0,1-.26-18.78,82.84,82.84,0,0,1,3.57-18.69A83.92,83.92,0,0,1,73,47.67l2.53-4.05,2.65-3.79c1.82-2.49,3.68-5,5.69-7.34,7.93-9.51,17.51-18.06,28.86-24A73.38,73.38,0,0,1,149.84.07a75.59,75.59,0,0,1,18.78,3.12A91.66,91.66,0,0,1,186,10.35a111.09,111.09,0,0,1,15.56,10.14,120.61,120.61,0,0,1,13.57,12.45,137.28,137.28,0,0,1,21.2,29.63,144.3,144.3,0,0,1,7.53,16.51,146.32,146.32,0,0,1,5.32,17.3,132.46,132.46,0,0,1,3,17.78l.37,4.49.19,4.49,0,4.48a2,2,0,0,1-.46,1.14A6.81,6.81,0,0,0,251.37,130.42Zm-1,3.39c-.29-.78-.69-1.68-1-2.76a14.57,14.57,0,0,1-.53-3.27l-.42-4.34-.58-4.3-.68-4.29A139.36,139.36,0,0,0,243,98.06,136.34,136.34,0,0,0,236.91,82,140.77,140.77,0,0,0,229,66.75a137.72,137.72,0,0,0-21-26.76,113.09,113.09,0,0,0-12.87-10.92,100.24,100.24,0,0,0-14.23-8.74,75.07,75.07,0,0,0-31.4-8.21,59,59,0,0,0-15.91,1.69,61.13,61.13,0,0,0-15,5.77A84.91,84.91,0,0,0,93.64,40.63c-1.79,2.13-3.46,4.37-5.11,6.64l-2.4,3.45L84,54.17a70.49,70.49,0,0,0-6.46,14.76c-3.21,10.31-3.89,21.4-2.85,32.42a115.59,115.59,0,0,0,2.83,16.51,152.15,152.15,0,0,0,4.88,16.25c7.73,21.43,19.14,41.75,32,61a560.34,560.34,0,0,0,42.68,55.31q11.49,13.25,23.6,25.94c4,4.24,8.14,8.41,12.25,12.56s8.32,8.26,12.53,12.19h0l-3.33-.94c46.23-10.86,89.34-32.09,127.53-59.55a356.29,356.29,0,0,0,52.81-46.33q5.94-6.42,11.46-13.17c1.86-2.23,3.6-4.55,5.39-6.83s3.46-4.64,5.08-7a163.86,163.86,0,0,0,16.81-29.74c4.38-10.32,7.32-21.14,7.5-31.7a50.25,50.25,0,0,0-2-15.3A44.13,44.13,0,0,0,420,76.93a53.41,53.41,0,0,0-11.07-11.1,69.6,69.6,0,0,0-14-8.27A61,61,0,0,0,379.54,53a64.81,64.81,0,0,0-16.24-.29c-10.94,1.23-21.8,5-32.07,10.15A175.13,175.13,0,0,0,302,82.08a278.63,278.63,0,0,0-26.22,24q-6.23,6.42-12.1,13.19-2.94,3.38-5.8,6.83l-2.82,3.49-1.39,1.75-.68.88-.34.44-.17.22-.08.11C252.79,132.81,251.07,134.35,250.35,133.81Z"/><g class="cls-3"><path class="cls-4" d="M402.73,93.12c.41.92.7,1.64,1,2.44s.57,1.57.82,2.36c.49,1.58.9,3.16,1.25,4.77a67.65,67.65,0,0,1,1.35,9.72A78,78,0,0,1,405.88,132a82.45,82.45,0,0,1-6.05,18.77,105.2,105.2,0,0,1-9.74,17.06,116.23,116.23,0,0,1-12.58,14.83c-2.36,2.19-4.63,4.47-7.13,6.47-1.24,1-2.46,2.06-3.71,3.05l-3.84,2.83a137.47,137.47,0,0,1-33.17,17.63,4,4,0,0,1-3.62-7.13h0a236.27,236.27,0,0,0,28-21.36l3.2-2.91c1-1,2-2,3-3,2.09-2,3.92-4.15,5.86-6.23.95-1.06,1.82-2.17,2.73-3.25l1.36-1.63,1.26-1.69c.84-1.13,1.72-2.23,2.53-3.38l2.35-3.48a106.46,106.46,0,0,0,8-14.64A119.76,119.76,0,0,0,390,128.32,140.13,140.13,0,0,0,393.44,112c.39-2.78.76-5.6,1-8.44.12-1.42.23-2.84.32-4.27l.21-4.14,0-.56a4,4,0,0,1,7.72-1.43Z"/></g><g class="cls-3"><path class="cls-4" d="M310.22,231.75a58.64,58.64,0,0,1-10,9.05,63.49,63.49,0,0,1-11.65,6.49,75.71,75.71,0,0,1-12.46,4,94.24,94.24,0,0,1-12.72,2,4.25,4.25,0,0,1-1.18-8.42l.2,0a84.1,84.1,0,0,0,11.36-2.49,65.34,65.34,0,0,0,10.64-4.13,53.51,53.51,0,0,0,9.42-6,47.79,47.79,0,0,0,7.7-7.81,5.68,5.68,0,1,1,9,7l-.2.24Z"/></g></g></g></svg>