<svg width="164" height="56" viewBox="0 0 164 56" fill="none" xmlns="http://www.w3.org/2000/svg">
<path d="M70.4 18.775L66.775 15.75H70.125L71.45 17.05L72.8 15.75H76.175L72.55 18.775H70.4ZM64.2 34.425L67 32.5C67.4167 33.2 68.0083 33.7583 68.775 34.175C69.5417 34.5917 70.4083 34.8 71.375 34.8C71.8083 34.8 72.2333 34.7417 72.65 34.625C73.0833 34.4917 73.4083 34.2833 73.625 34C73.8583 33.7167 73.975 33.4083 73.975 33.075C73.975 32.7583 73.875 32.4667 73.675 32.2C73.4917 31.9333 73.1917 31.7 72.775 31.5C72.3583 31.2833 71.7833 31.05 71.05 30.8C70.3333 30.55 69.85 30.375 69.6 30.275C68.4167 29.8417 67.525 29.3583 66.925 28.825C66.3417 28.2917 65.9333 27.725 65.7 27.125C65.4833 26.525 65.375 25.8917 65.375 25.225C65.375 24.675 65.475 24.1083 65.675 23.525C65.8917 22.9417 66.2417 22.4167 66.725 21.95C67.2083 21.4667 67.825 21.075 68.575 20.775C69.3417 20.4583 70.2083 20.3 71.175 20.3C72.5083 20.3 73.6583 20.575 74.625 21.125C75.6083 21.6583 76.3917 22.3333 76.975 23.15L74.4 25.1C73.7 24.2 72.6583 23.75 71.275 23.75C70.6417 23.75 70.1333 23.8833 69.75 24.15C69.3667 24.4167 69.175 24.7583 69.175 25.175C69.175 25.5917 69.3083 25.9333 69.575 26.2C69.8417 26.45 70.4333 26.7333 71.35 27.05C72.2833 27.3667 72.9583 27.6083 73.375 27.775C74.9417 28.375 76.075 29.0833 76.775 29.9C77.475 30.7 77.825 31.7167 77.825 32.95C77.825 33.7167 77.6917 34.425 77.425 35.075C77.1583 35.725 76.7583 36.2917 76.225 36.775C75.6917 37.2583 75.0083 37.6333 74.175 37.9C73.3583 38.15 72.4167 38.275 71.35 38.275C70.2333 38.275 69.175 38.1083 68.175 37.775C67.1917 37.4417 66.3667 36.975 65.7 36.375C65.05 35.7583 64.55 35.1083 64.2 34.425ZM79.202 31.7C79.202 30.8167 79.3603 29.975 79.677 29.175C79.9936 28.375 80.4353 27.675 81.002 27.075C81.5686 26.475 82.2353 26.0083 83.002 25.675C83.7686 25.3417 84.5853 25.175 85.452 25.175C85.902 25.175 86.3936 25.2333 86.927 25.35C87.4603 25.4667 87.9353 25.6833 88.352 26C88.7853 26.3 89.0686 26.65 89.202 27.05V25.4H92.927V33.575C92.927 33.9417 92.977 34.2667 93.077 34.55C93.1936 34.8333 93.452 34.975 93.852 34.975L94.477 34.925V38.025C94.077 38.1583 93.5186 38.225 92.802 38.225C91.9686 38.225 91.2853 38.075 90.752 37.775C90.1686 37.4083 89.7936 36.9583 89.627 36.425C88.8103 37.6417 87.4186 38.25 85.452 38.25C84.5853 38.25 83.7686 38.0833 83.002 37.75C82.2353 37.4167 81.5686 36.95 81.002 36.35C80.4353 35.75 79.9936 35.05 79.677 34.25C79.3603 33.45 79.202 32.6 79.202 31.7ZM82.927 31.7C82.927 32.5833 83.2353 33.3333 83.852 33.95C84.4686 34.55 85.227 34.85 86.127 34.85C86.5436 34.85 87.0103 34.75 87.527 34.55C88.0436 34.3333 88.4853 33.9667 88.852 33.45C89.2353 32.9167 89.427 32.3333 89.427 31.7C89.427 31.0667 89.2353 30.4917 88.852 29.975C88.4853 29.4417 88.0436 29.075 87.527 28.875C87.0103 28.6583 86.5436 28.55 86.127 28.55C85.227 28.55 84.4686 28.8583 83.852 29.475C83.2353 30.075 82.927 30.8167 82.927 31.7ZM96.1338 42.825V25.4H99.8588V27.05C100.042 26.5167 100.475 26.075 101.159 25.725C101.859 25.3583 102.675 25.175 103.609 25.175C104.475 25.175 105.292 25.3417 106.059 25.675C106.825 26.0083 107.492 26.475 108.059 27.075C108.625 27.675 109.067 28.375 109.384 29.175C109.7 29.975 109.859 30.8167 109.859 31.7C109.859 32.5833 109.7 33.425 109.384 34.225C109.067 35.025 108.625 35.725 108.059 36.325C107.492 36.925 106.825 37.3917 106.059 37.725C105.292 38.0583 104.475 38.225 103.609 38.225C103.159 38.225 102.667 38.1667 102.134 38.05C101.6 37.9333 101.117 37.725 100.684 37.425C100.267 37.1083 99.9921 36.75 99.8588 36.35V42.825H96.1338ZM99.6338 31.7C99.6338 32.3333 99.8171 32.9167 100.184 33.45C100.567 33.9667 101.017 34.3333 101.534 34.55C102.05 34.75 102.517 34.85 102.934 34.85C103.834 34.85 104.592 34.55 105.209 33.95C105.825 33.3333 106.134 32.5833 106.134 31.7C106.134 30.8167 105.825 30.075 105.209 29.475C104.592 28.8583 103.834 28.55 102.934 28.55C102.517 28.55 102.05 28.6583 101.534 28.875C101.017 29.075 100.567 29.4417 100.184 29.975C99.8171 30.4917 99.6338 31.0667 99.6338 31.7ZM111.233 31.7C111.233 30.8 111.408 29.9417 111.758 29.125C112.125 28.3083 112.625 27.5917 113.258 26.975C113.908 26.3583 114.658 25.8833 115.508 25.55C116.375 25.2 117.283 25.025 118.233 25.025C119.167 25.025 120.058 25.2 120.908 25.55C121.775 25.8833 122.533 26.3583 123.183 26.975C123.833 27.5917 124.333 28.3083 124.683 29.125C125.05 29.9417 125.233 30.8 125.233 31.7C125.233 32.6 125.05 33.4583 124.683 34.275C124.333 35.0917 123.833 35.8083 123.183 36.425C122.533 37.0417 121.775 37.525 120.908 37.875C120.058 38.2083 119.167 38.375 118.233 38.375C117.283 38.375 116.375 38.2083 115.508 37.875C114.658 37.525 113.908 37.0417 113.258 36.425C112.625 35.8083 112.125 35.0917 111.758 34.275C111.408 33.4583 111.233 32.6 111.233 31.7ZM114.958 31.7C114.958 32.3667 115.142 32.975 115.508 33.525C115.875 34.075 116.308 34.4583 116.808 34.675C117.325 34.8917 117.8 35 118.233 35C118.65 35 119.117 34.8917 119.633 34.675C120.15 34.4583 120.592 34.075 120.958 33.525C121.325 32.975 121.508 32.3667 121.508 31.7C121.508 31.2833 121.4 30.8167 121.183 30.3C120.967 29.7833 120.583 29.3417 120.033 28.975C119.483 28.5917 118.883 28.4 118.233 28.4C117.317 28.4 116.542 28.725 115.908 29.375C115.275 30.0083 114.958 30.7833 114.958 31.7ZM127.188 38V25.4H130.913V26.975C131.18 26.425 131.638 25.9833 132.288 25.65C132.955 25.3 133.705 25.125 134.538 25.125C136.055 25.125 137.23 25.5917 138.063 26.525C138.897 27.4417 139.313 28.7167 139.313 30.35V33.525C139.313 33.9917 139.372 34.3333 139.488 34.55C139.605 34.75 139.822 34.85 140.138 34.85L140.538 34.825V37.975C140.255 38.0917 139.713 38.15 138.913 38.15C136.697 38.15 135.588 36.95 135.588 34.55V30.8C135.588 30.0667 135.388 29.4917 134.988 29.075C134.605 28.6417 134.055 28.425 133.338 28.425C133.022 28.425 132.672 28.5083 132.288 28.675C131.905 28.825 131.58 29.1083 131.313 29.525C131.047 29.925 130.913 30.3917 130.913 30.925V38H127.188ZM144.101 24.35C143.835 24.35 143.535 24.2833 143.201 24.15C142.868 24 142.576 23.75 142.326 23.4C142.093 23.0333 141.976 22.6417 141.976 22.225C141.976 21.6583 142.185 21.1667 142.601 20.75C143.035 20.3333 143.535 20.125 144.101 20.125C144.368 20.125 144.668 20.1917 145.001 20.325C145.335 20.4583 145.618 20.7083 145.851 21.075C146.101 21.425 146.226 21.8083 146.226 22.225C146.226 22.4917 146.151 22.7917 146.001 23.125C145.868 23.4583 145.618 23.75 145.251 24C144.901 24.2333 144.518 24.35 144.101 24.35ZM142.251 38.475V25.4H145.976V38.925C145.976 41.925 144.51 43.425 141.576 43.425C140.96 43.425 140.418 43.3917 139.951 43.325V40.075L140.751 40.125C141.268 40.125 141.643 39.9917 141.876 39.725C142.126 39.475 142.251 39.0583 142.251 38.475ZM147.854 31.7C147.854 30.8167 148.013 29.975 148.329 29.175C148.646 28.375 149.088 27.675 149.654 27.075C150.221 26.475 150.888 26.0083 151.654 25.675C152.421 25.3417 153.238 25.175 154.104 25.175C154.554 25.175 155.046 25.2333 155.579 25.35C156.113 25.4667 156.588 25.6833 157.004 26C157.438 26.3 157.721 26.65 157.854 27.05V25.4H161.579V33.575C161.579 33.9417 161.629 34.2667 161.729 34.55C161.846 34.8333 162.104 34.975 162.504 34.975L163.129 34.925V38.025C162.729 38.1583 162.171 38.225 161.454 38.225C160.621 38.225 159.938 38.075 159.404 37.775C158.821 37.4083 158.446 36.9583 158.279 36.425C157.463 37.6417 156.071 38.25 154.104 38.25C153.238 38.25 152.421 38.0833 151.654 37.75C150.888 37.4167 150.221 36.95 149.654 36.35C149.088 35.75 148.646 35.05 148.329 34.25C148.013 33.45 147.854 32.6 147.854 31.7ZM151.579 31.7C151.579 32.5833 151.888 33.3333 152.504 33.95C153.121 34.55 153.879 34.85 154.779 34.85C155.196 34.85 155.663 34.75 156.179 34.55C156.696 34.3333 157.138 33.9667 157.504 33.45C157.888 32.9167 158.079 32.3333 158.079 31.7C158.079 31.0667 157.888 30.4917 157.504 29.975C157.138 29.4417 156.696 29.075 156.179 28.875C155.663 28.6583 155.196 28.55 154.779 28.55C153.879 28.55 153.121 28.8583 152.504 29.475C151.888 30.075 151.579 30.8167 151.579 31.7Z" fill="#E298AB"/>
<path d="M2.53128e-05 29.0463C-0.000197951 25.5074 0.697225 22.0031 2.05247 18.7334C3.40772 15.4638 5.39426 12.4929 7.89865 9.99039C10.403 7.48784 13.3763 5.50265 16.6485 4.14816C19.9208 2.79368 23.4281 2.09641 26.97 2.09619L2.53128e-05 29.0463ZM26.97 2.09619C30.5121 2.09619 34.0196 2.79329 37.292 4.14768C40.5645 5.50207 43.5379 7.48722 46.0425 9.98979C48.5471 12.4924 50.5338 15.4633 51.8891 18.733C53.2445 22.0028 53.942 25.5072 53.9417 29.0463L26.97 2.09619ZM46.4121 47.719C51.2509 42.7061 53.9508 36.0107 53.9417 29.0463L46.4121 47.719ZM2.53128e-05 29.0463C-0.00963727 36.0849 2.7474 42.8459 7.67757 47.8736Z" fill="#FDFFFD"/>
<path d="M53.942 29.046C53.951 36.0105 51.2512 42.7059 46.4123 47.7188L46.3919 31.2627C47.407 30.19 48.0895 28.8466 48.3569 27.3948C48.6243 25.9429 48.4652 24.4448 47.8989 23.0813C47.3325 21.7179 46.3831 20.5474 45.1654 19.7114C43.9476 18.8754 42.5137 18.4096 41.0367 18.3703C41.1503 17.8514 41.2073 17.3218 41.2067 16.7906C41.1951 15.1376 40.6522 13.5321 39.658 12.2108C38.6639 10.8895 37.2711 9.92238 35.6851 9.45195C34.0991 8.98152 32.4037 9.03273 30.849 9.59802C29.2944 10.1633 27.9626 11.2128 27.0502 12.5916C26.0703 11.0836 24.5928 9.96603 22.8742 9.43292C21.1556 8.89982 19.3044 8.98484 17.642 9.67324C15.9796 10.3616 14.611 11.6099 13.7737 13.2014C12.9365 14.7929 12.6834 16.6271 13.0585 18.3856C11.1192 18.5192 9.3026 19.382 7.97454 20.8003C6.64648 22.2187 5.90564 24.0871 5.90122 26.0293C5.89664 27.8331 6.53554 29.5796 7.7033 30.9553L7.67779 47.8853C4.58852 44.725 2.32423 40.8544 1.08428 36.6142C-0.155674 32.3739 -0.333254 27.8942 0.567169 23.5692C1.46759 19.2443 3.4184 15.2069 6.24785 11.8124C9.0773 8.41793 12.6986 5.77053 16.7929 4.10328C20.8873 2.43602 25.3291 1.80005 29.7273 2.25135C34.1255 2.70265 38.3452 4.22738 42.0149 6.69131C45.6846 9.15523 48.6917 12.4828 50.7716 16.381C52.8514 20.2792 53.9402 24.6285 53.942 29.046V29.046Z" fill="#E298AB"/>
<path d="M48.4776 26.0226C48.4694 24.0338 47.6892 22.1257 46.3013 20.7C44.9133 19.2743 43.0259 18.4422 41.0364 18.3789C41.15 17.86 41.207 17.3303 41.2064 16.7992C41.1948 15.1462 40.6519 13.5407 39.6577 12.2194C38.6636 10.8981 37.2708 9.93097 35.6848 9.46054C34.0988 8.99011 32.4034 9.04132 30.8487 9.60661C29.294 10.1719 27.9623 11.2214 27.0498 12.6002C26.0698 11.0941 24.5933 9.97805 22.8761 9.4455C21.159 8.91295 19.3094 8.99747 17.6481 9.68442C15.9867 10.3714 14.6183 11.6175 13.78 13.2067C12.9417 14.7959 12.6864 16.6281 13.0582 18.3857C11.1189 18.5193 9.30229 19.3821 7.97423 20.8004C6.64617 22.2188 5.90533 24.0872 5.9009 26.0294C5.89632 27.8332 6.53523 29.5797 7.70298 30.9554L7.67748 47.8854C8.4435 48.6706 9.2571 49.4081 10.1137 50.0936V50.0936C14.9293 53.9433 20.9201 56.0278 27.0874 55.9997C33.2547 55.9716 39.2261 53.8325 44.0064 49.939C44.0064 49.939 44.0064 49.939 44.0166 49.939C44.8584 49.2512 45.6583 48.5139 46.412 47.7308L46.3916 31.2747C47.7364 29.8568 48.4834 27.9761 48.4776 26.0226ZM13.6107 29.1039H13.5461C13.1414 29.0996 12.7414 29.0158 12.3691 28.8571C11.9967 28.6984 11.6593 28.468 11.3761 28.1791C11.0929 27.8901 10.8694 27.5483 10.7185 27.173C10.5675 26.7977 10.492 26.3965 10.4962 25.992C10.5004 25.5876 10.5844 25.188 10.7432 24.816C10.902 24.444 11.1326 24.1069 11.4218 23.8239C11.711 23.5409 12.0532 23.3177 12.4288 23.1668C12.8043 23.016 13.206 22.9405 13.6107 22.9447C14.1722 22.9429 14.7239 23.091 15.2087 23.3739C15.6936 23.6567 16.0939 24.0639 16.3683 24.5533C16.62 25.0027 16.7517 25.5093 16.7508 26.0243C16.747 26.4325 16.6628 26.836 16.5029 27.2117C16.3431 27.5874 16.1107 27.9279 15.8192 28.2139C15.5276 28.4999 15.1825 28.7257 14.8035 28.8784C14.4246 29.0311 14.0193 29.1077 13.6107 29.1039V29.1039ZM17.4597 16.7907C17.4597 15.9586 17.7905 15.1606 18.3794 14.5723C18.9683 13.9839 19.767 13.6534 20.5998 13.6534C21.4325 13.6534 22.2312 13.9839 22.8201 14.5723C23.409 15.1606 23.7398 15.9586 23.7398 16.7907C23.7402 17.0014 23.718 17.2115 23.6735 17.4175C23.521 18.1171 23.1323 18.743 22.5726 19.1902C22.013 19.6375 21.3164 19.8788 20.5998 19.8737C19.9137 19.8755 19.2456 19.655 18.6957 19.2452V19.2452C18.3123 18.9608 18.0008 18.5907 17.7862 18.1645C17.5716 17.7383 17.4598 17.2678 17.4597 16.7907V16.7907ZM35.4992 29.1905C35.4945 29.205 35.4905 29.2198 35.4873 29.2347C35.4036 29.4962 35.2931 29.7484 35.1575 29.9872C35.1422 30.016 35.1286 30.0432 35.1116 30.0721C34.9035 30.4275 34.642 30.7488 34.3364 31.025L27.5412 37.1994L27.4868 37.247L27.4341 37.1994L20.6338 31.0267C20.3276 30.7514 20.0666 30.4299 19.8602 30.0738C19.7982 29.972 19.7415 29.8671 19.6902 29.7595C19.6006 29.5758 19.5267 29.3849 19.4692 29.1888C19.4259 29.05 19.3907 28.9088 19.3638 28.7659C19.2468 28.1465 19.2751 27.5086 19.4465 26.902C19.6178 26.2955 19.9277 25.7369 20.3515 25.2701C20.622 24.9741 20.9341 24.7189 21.2781 24.5126C22.0293 24.0638 22.905 23.8682 23.7759 23.9548C24.6468 24.0413 25.4668 24.4054 26.1148 24.9933L27.4868 26.24L28.8604 24.9933C29.5213 24.3942 30.3605 24.028 31.2495 23.951C32.1385 23.8739 33.0283 24.0902 33.7825 24.5666C34.5368 25.0431 35.1139 25.7534 35.4255 26.5889C35.7371 27.4243 35.766 28.3388 35.5077 29.1922L35.4992 29.1905ZM35.4363 19.2061C35.0196 19.5284 34.5289 19.7414 34.0087 19.8258C33.4886 19.9103 32.9556 19.8634 32.4582 19.6895C31.9608 19.5157 31.5148 19.2203 31.1608 18.8303C30.8068 18.4403 30.556 17.9681 30.4313 17.4565C30.38 17.2383 30.3543 17.0149 30.3548 16.7907C30.3548 15.9586 30.6856 15.1606 31.2745 14.5723C31.8634 13.9839 32.662 13.6534 33.4948 13.6534C34.3276 13.6534 35.1263 13.9839 35.7152 14.5723C36.304 15.1606 36.6349 15.9586 36.6349 16.7907C36.6346 17.2588 36.5263 17.7205 36.3184 18.14C36.1105 18.5595 35.8087 18.9255 35.4363 19.2095V19.2061ZM40.7644 29.0988H40.6895C40.2807 29.1028 39.8751 29.0263 39.4958 28.8736C39.1166 28.7209 38.7712 28.495 38.4794 28.2088C38.1877 27.9226 37.9552 27.5818 37.7953 27.2058C37.6355 26.8298 37.5514 26.426 37.5478 26.0175C37.5474 25.5052 37.6779 25.0012 37.9269 24.5533C38.2007 24.0618 38.6014 23.6526 39.0873 23.3685C39.5732 23.0843 40.1265 22.9357 40.6895 22.9379C41.507 22.928 42.2949 23.243 42.88 23.8135C43.465 24.384 43.7993 25.1634 43.8092 25.9802C43.8191 26.7969 43.5039 27.5841 42.9329 28.1687C42.3619 28.7532 41.5818 29.0872 40.7644 29.0971V29.0988Z" fill="#FDFFFD"/>
<path d="M43.8299 26.0228C43.8233 26.8337 43.4995 27.6098 42.9277 28.1853C42.3558 28.7608 41.5813 29.0899 40.7698 29.1023H40.695C40.2861 29.1064 39.8805 29.0298 39.5013 28.8771C39.122 28.7244 38.7766 28.4985 38.4849 28.2123C38.1931 27.9262 37.9606 27.5853 37.8007 27.2093C37.6409 26.8334 37.5568 26.4296 37.5532 26.0211C37.5528 25.5087 37.6833 25.0047 37.9323 24.5569C38.2061 24.0653 38.6068 23.6561 39.0927 23.372C39.5786 23.0879 40.132 22.9392 40.695 22.9415C41.5194 22.9356 42.3125 23.2567 42.9002 23.8344C43.4879 24.412 43.8223 25.1991 43.8299 26.0228V26.0228Z" fill="#E298AB"/>
<path d="M36.6334 16.7906C36.6341 17.258 36.5271 17.7193 36.3207 18.1387C36.1144 18.5582 35.8141 18.9245 35.4433 19.2095C35.0263 19.5333 34.5348 19.7475 34.0136 19.8326C33.4923 19.9177 32.9581 19.871 32.4596 19.6966C31.9612 19.5223 31.5144 19.2259 31.1601 18.8346C30.8058 18.4432 30.5553 17.9695 30.4315 17.4565C30.3802 17.2383 30.3545 17.0148 30.355 16.7906C30.355 15.9586 30.6858 15.1606 31.2747 14.5722C31.8636 13.9839 32.6622 13.6533 33.495 13.6533C34.3278 13.6533 35.1265 13.9839 35.7154 14.5722C36.3042 15.1606 36.6351 15.9586 36.6351 16.7906H36.6334Z" fill="#E298AB"/>
<path d="M23.74 16.7907C23.7405 17.0014 23.7182 17.2115 23.6737 17.4175C23.5212 18.1171 23.1325 18.743 22.5729 19.1902C22.0132 19.6374 21.3166 19.8787 20.6 19.8736C19.914 19.8755 19.2458 19.655 18.6959 19.2452V19.2452C18.3132 18.9613 18.0022 18.592 17.7876 18.1667C17.573 17.7415 17.4608 17.272 17.46 16.7958C17.46 15.9637 17.7908 15.1657 18.3797 14.5773C18.9685 13.989 19.7672 13.6584 20.6 13.6584C21.4328 13.6584 22.2315 13.989 22.8203 14.5773C23.4092 15.1657 23.74 15.9637 23.74 16.7958V16.7907Z" fill="#E298AB"/>
<path d="M16.7508 26.0226C16.7473 26.431 16.6632 26.8346 16.5035 27.2105C16.3437 27.5864 16.1114 27.9272 15.8198 28.2133C15.5282 28.4995 15.183 28.7254 14.804 28.8782C14.425 29.031 14.0195 29.1077 13.6108 29.1039H13.5462C12.7287 29.0953 11.9482 28.7627 11.3762 28.1791C10.8042 27.5955 10.4877 26.8088 10.4963 25.992C10.5048 25.1753 10.8378 24.3954 11.4219 23.8239C12.006 23.2524 12.7933 22.9362 13.6108 22.9447C14.1722 22.9429 14.724 23.091 15.2088 23.3739C15.6936 23.6567 16.094 24.0639 16.3683 24.5533C16.6197 25.0022 16.7515 25.5082 16.7508 26.0226V26.0226Z" fill="#E298AB"/>
<path d="M35.4857 28.0101C35.4868 28.4125 35.4295 28.813 35.3157 29.1991C35.3104 29.2136 35.3058 29.2283 35.3021 29.2433C35.219 29.5047 35.109 29.7569 34.974 29.9957L34.9264 30.0807C34.7188 30.436 34.458 30.7574 34.1528 31.0336L27.3525 37.2063L27.2981 37.2539L27.2454 37.2063L20.4451 31.0336C20.1395 30.7578 19.8785 30.4364 19.6716 30.0807C19.6095 29.9789 19.5528 29.874 19.5016 29.7664C19.4114 29.5828 19.3369 29.3918 19.2789 29.1957C19.2364 29.0564 19.2024 28.9137 19.1735 28.7727C19.1269 28.5229 19.103 28.2693 19.1021 28.0152C19.1028 27.226 19.3327 26.454 19.764 25.7928C20.1953 25.1317 20.8094 24.6098 21.5318 24.2906C22.2541 23.9713 23.0537 23.8684 23.8334 23.9944C24.6132 24.1204 25.3396 24.4697 25.9245 25.0001L27.2964 26.2469L28.6718 25.0001C29.2567 24.4703 29.9829 24.1214 30.7624 23.9957C31.5419 23.8701 32.3411 23.9731 33.0631 24.2923C33.7851 24.6114 34.399 25.133 34.8302 25.7939C35.2614 26.4547 35.4915 27.2263 35.4925 28.0152L35.4857 28.0101Z" fill="#D80350"/>
</svg>
