<svg width="13" height="24" viewBox="0 0 13 24" fill="none" xmlns="http://www.w3.org/2000/svg">
<path d="M1.29308 22.2929C1.19757 22.3852 1.12139 22.4955 1.06898 22.6175C1.01657 22.7395 0.988985 22.8707 0.987831 23.0035C0.986677 23.1363 1.01198 23.268 1.06226 23.3909C1.11254 23.5138 1.18679 23.6254 1.28069 23.7193C1.37458 23.8132 1.48623 23.8875 1.60913 23.9377C1.73202 23.988 1.8637 24.0133 1.99648 24.0122C2.12926 24.011 2.26048 23.9834 2.38249 23.931C2.50449 23.8786 2.61483 23.8024 2.70708 23.7069L10.8791 15.5349C11.8152 14.5966 12.3409 13.3253 12.3409 11.9999C12.3409 10.6745 11.8152 9.40321 10.8791 8.46492L2.70708 0.292919C2.51848 0.110761 2.26588 0.00996641 2.00368 0.0122448C1.74148 0.0145233 1.49067 0.119692 1.30526 0.3051C1.11985 0.490508 1.01469 0.741321 1.01241 1.00352C1.01013 1.26571 1.11092 1.51832 1.29308 1.70692L9.46508 9.87892C10.0275 10.4415 10.3434 11.2044 10.3434 11.9999C10.3434 12.7954 10.0275 13.5583 9.46508 14.1209L1.29308 22.2929Z" fill="#2B343A" fill-opacity="0.6"/>
</svg>
