<svg width="16" height="9" viewBox="0 0 16 9" fill="none" xmlns="http://www.w3.org/2000/svg">
<path d="M14.8616 1.08048L9.41429 6.52848C9.03875 6.90301 8.53001 7.11334 7.99962 7.11334C7.46924 7.11334 6.9605 6.90301 6.58495 6.52848L1.13762 1.08048C1.01189 0.95904 0.843484 0.891843 0.668686 0.893362C0.493888 0.894881 0.32668 0.964994 0.203075 1.0886C0.0794693 1.2122 0.00935665 1.37941 0.0078377 1.55421C0.00631876 1.72901 0.073515 1.89741 0.194954 2.02315L5.64229 7.47115C6.26804 8.09531 7.11579 8.44584 7.99962 8.44584C8.88345 8.44584 9.7312 8.09531 10.357 7.47115L15.8043 2.02315C15.868 1.96165 15.9187 1.88808 15.9537 1.80675C15.9886 1.72541 16.007 1.63793 16.0078 1.54941C16.0086 1.46089 15.9917 1.37311 15.9582 1.29118C15.9246 1.20924 15.8751 1.13481 15.8126 1.07222C15.75 1.00962 15.6755 0.960118 15.5936 0.926597C15.5117 0.893077 15.4239 0.876209 15.3354 0.876978C15.2468 0.877748 15.1594 0.896138 15.078 0.931078C14.9967 0.966017 14.9231 1.0168 14.8616 1.08048Z" fill="#91B2CB"/>
</svg>
