<svg width="24" height="24" viewBox="0 0 24 24" fill="none" xmlns="http://www.w3.org/2000/svg">
<rect x="1" y="1" width="22" height="22" rx="5" fill="#91B2CB" stroke="#91B2CB" stroke-width="2"/>
<path d="M5.00867 14.3248L7.78601 17.1022C8.16106 17.4771 8.66968 17.6877 9.20001 17.6877C9.73034 17.6877 10.239 17.4771 10.614 17.1022L19.1913 8.52483C19.3128 8.39909 19.38 8.23069 19.3785 8.05589C19.3769 7.8811 19.3068 7.71389 19.1832 7.59028C19.0596 7.46668 18.8924 7.39656 18.7176 7.39504C18.5428 7.39353 18.3744 7.46072 18.2487 7.58216L9.67134 16.1595C9.54632 16.2845 9.37678 16.3547 9.20001 16.3547C9.02323 16.3547 8.85369 16.2845 8.72867 16.1595L5.95134 13.3822C5.82561 13.2607 5.6572 13.1935 5.48241 13.195C5.30761 13.1966 5.1404 13.2667 5.0168 13.3903C4.89319 13.5139 4.82308 13.6811 4.82156 13.8559C4.82004 14.0307 4.88724 14.1991 5.00867 14.3248Z" fill="#FEFEFE"/>
</svg>
