<svg width="112" height="24" viewBox="0 0 112 24" fill="none" xmlns="http://www.w3.org/2000/svg">
<path d="M4.96 18.112C4.18133 18.112 3.47733 17.9787 2.848 17.712C2.22933 17.4453 1.73867 17.0613 1.376 16.56C1.01333 16.0587 0.826667 15.4667 0.816 14.784H3.216C3.248 15.2427 3.408 15.6053 3.696 15.872C3.99467 16.1387 4.4 16.272 4.912 16.272C5.43467 16.272 5.84533 16.1493 6.144 15.904C6.44267 15.648 6.592 15.3173 6.592 14.912C6.592 14.5813 6.49067 14.3093 6.288 14.096C6.08533 13.8827 5.82933 13.7173 5.52 13.6C5.22133 13.472 4.80533 13.3333 4.272 13.184C3.54667 12.9707 2.95467 12.7627 2.496 12.56C2.048 12.3467 1.65867 12.032 1.328 11.616C1.008 11.1893 0.848 10.624 0.848 9.92C0.848 9.25867 1.01333 8.68267 1.344 8.192C1.67467 7.70133 2.13867 7.328 2.736 7.072C3.33333 6.80533 4.016 6.672 4.784 6.672C5.936 6.672 6.86933 6.95467 7.584 7.52C8.30933 8.07467 8.70933 8.85333 8.784 9.856H6.32C6.29867 9.472 6.13333 9.15733 5.824 8.912C5.52533 8.656 5.12533 8.528 4.624 8.528C4.18667 8.528 3.83467 8.64 3.568 8.864C3.312 9.088 3.184 9.41333 3.184 9.84C3.184 10.1387 3.28 10.3893 3.472 10.592C3.67467 10.784 3.92 10.944 4.208 11.072C4.50667 11.1893 4.92267 11.328 5.456 11.488C6.18133 11.7013 6.77333 11.9147 7.232 12.128C7.69067 12.3413 8.08533 12.6613 8.416 13.088C8.74667 13.5147 8.912 14.0747 8.912 14.768C8.912 15.3653 8.75733 15.92 8.448 16.432C8.13867 16.944 7.68533 17.3547 7.088 17.664C6.49067 17.9627 5.78133 18.112 4.96 18.112ZM10.278 13.536C10.278 12.64 10.454 11.8453 10.806 11.152C11.1687 10.4587 11.654 9.92533 12.262 9.552C12.8807 9.17867 13.5687 8.992 14.326 8.992C14.9873 8.992 15.5633 9.12533 16.054 9.392C16.5553 9.65867 16.9553 9.99467 17.254 10.4V9.136H19.51V18H17.254V16.704C16.966 17.12 16.566 17.4667 16.054 17.744C15.5527 18.0107 14.9713 18.144 14.31 18.144C13.5633 18.144 12.8807 17.952 12.262 17.568C11.654 17.184 11.1687 16.6453 10.806 15.952C10.454 15.248 10.278 14.4427 10.278 13.536ZM17.254 13.568C17.254 13.024 17.1473 12.56 16.934 12.176C16.7207 11.7813 16.4327 11.4827 16.07 11.28C15.7073 11.0667 15.318 10.96 14.902 10.96C14.486 10.96 14.102 11.0613 13.75 11.264C13.398 11.4667 13.11 11.7653 12.886 12.16C12.6727 12.544 12.566 13.0027 12.566 13.536C12.566 14.0693 12.6727 14.5387 12.886 14.944C13.11 15.3387 13.398 15.6427 13.75 15.856C14.1127 16.0693 14.4967 16.176 14.902 16.176C15.318 16.176 15.7073 16.0747 16.07 15.872C16.4327 15.6587 16.7207 15.36 16.934 14.976C17.1473 14.5813 17.254 14.112 17.254 13.568ZM23.7458 16.16H27.6978V18H21.2018V16.192L25.0738 10.976H21.2178V9.136H27.6498V10.944L23.7458 16.16ZM34.3441 9.008C35.4001 9.008 36.2535 9.344 36.9041 10.016C37.5548 10.6773 37.8801 11.6053 37.8801 12.8V18H35.6401V13.104C35.6401 12.4 35.4641 11.8613 35.1121 11.488C34.7601 11.104 34.2801 10.912 33.6721 10.912C33.0535 10.912 32.5628 11.104 32.2001 11.488C31.8481 11.8613 31.6721 12.4 31.6721 13.104V18H29.4321V9.136H31.6721V10.24C31.9708 9.856 32.3495 9.55733 32.8081 9.344C33.2775 9.12 33.7895 9.008 34.3441 9.008ZM39.4342 13.536C39.4342 12.64 39.6102 11.8453 39.9622 11.152C40.3249 10.4587 40.8103 9.92533 41.4183 9.552C42.0369 9.17867 42.7249 8.992 43.4823 8.992C44.1436 8.992 44.7196 9.12533 45.2103 9.392C45.7116 9.65867 46.1116 9.99467 46.4103 10.4V9.136H48.6663V18H46.4103V16.704C46.1223 17.12 45.7223 17.4667 45.2103 17.744C44.7089 18.0107 44.1276 18.144 43.4663 18.144C42.7196 18.144 42.0369 17.952 41.4183 17.568C40.8103 17.184 40.3249 16.6453 39.9622 15.952C39.6102 15.248 39.4342 14.4427 39.4342 13.536ZM46.4103 13.568C46.4103 13.024 46.3036 12.56 46.0903 12.176C45.8769 11.7813 45.5889 11.4827 45.2263 11.28C44.8636 11.0667 44.4743 10.96 44.0583 10.96C43.6423 10.96 43.2583 11.0613 42.9062 11.264C42.5543 11.4667 42.2663 11.7653 42.0423 12.16C41.8289 12.544 41.7223 13.0027 41.7223 13.536C41.7223 14.0693 41.8289 14.5387 42.0423 14.944C42.2663 15.3387 42.5543 15.6427 42.9062 15.856C43.2689 16.0693 43.6529 16.176 44.0583 16.176C44.4743 16.176 44.8636 16.0747 45.2263 15.872C45.5889 15.6587 45.8769 15.36 46.0903 14.976C46.3036 14.5813 46.4103 14.112 46.4103 13.568ZM51.99 8.08C51.5847 8.08 51.2487 7.95733 50.982 7.712C50.726 7.456 50.598 7.14133 50.598 6.768C50.598 6.39467 50.726 6.08533 50.982 5.84C51.2487 5.584 51.5847 5.456 51.99 5.456C52.3847 5.456 52.71 5.584 52.966 5.84C53.222 6.08533 53.35 6.39467 53.35 6.768C53.35 7.14133 53.222 7.456 52.966 7.712C52.71 7.95733 52.3847 8.08 51.99 8.08ZM53.094 19.456C53.094 20.4373 52.8487 21.1413 52.358 21.568C51.878 22.0053 51.1847 22.224 50.278 22.224H49.286V20.32H49.926C50.2673 20.32 50.5073 20.2507 50.646 20.112C50.7847 19.984 50.854 19.7707 50.854 19.472V9.136H53.094V19.456ZM62.8156 15.936L65.0556 9.136H67.4396L64.1596 18H61.4396L58.1756 9.136H60.5756L62.8156 15.936ZM69.8338 8.08C69.4391 8.08 69.1084 7.95733 68.8418 7.712C68.5858 7.456 68.4578 7.14133 68.4578 6.768C68.4578 6.39467 68.5858 6.08533 68.8418 5.84C69.1084 5.584 69.4391 5.456 69.8338 5.456C70.2284 5.456 70.5538 5.584 70.8098 5.84C71.0764 6.08533 71.2098 6.39467 71.2098 6.768C71.2098 7.14133 71.0764 7.456 70.8098 7.712C70.5538 7.95733 70.2284 8.08 69.8338 8.08ZM70.9378 9.136V18H68.6978V9.136H70.9378ZM76.5429 18.144C75.8175 18.144 75.1669 18.016 74.5909 17.76C74.0149 17.4933 73.5562 17.136 73.2149 16.688C72.8842 16.24 72.7029 15.744 72.6709 15.2H74.9269C74.9695 15.5413 75.1349 15.824 75.4229 16.048C75.7215 16.272 76.0895 16.384 76.5269 16.384C76.9535 16.384 77.2842 16.2987 77.5189 16.128C77.7642 15.9573 77.8869 15.7387 77.8869 15.472C77.8869 15.184 77.7375 14.9707 77.4389 14.832C77.1509 14.6827 76.6869 14.5227 76.0469 14.352C75.3855 14.192 74.8415 14.0267 74.4149 13.856C73.9989 13.6853 73.6362 13.424 73.3269 13.072C73.0282 12.72 72.8789 12.2453 72.8789 11.648C72.8789 11.1573 73.0175 10.7093 73.2949 10.304C73.5829 9.89867 73.9882 9.57867 74.5109 9.344C75.0442 9.10933 75.6682 8.992 76.3829 8.992C77.4389 8.992 78.2815 9.25867 78.9109 9.792C79.5402 10.3147 79.8869 11.024 79.9509 11.92H77.8069C77.7749 11.568 77.6255 11.2907 77.3589 11.088C77.1029 10.8747 76.7562 10.768 76.3189 10.768C75.9135 10.768 75.5989 10.8427 75.3749 10.992C75.1615 11.1413 75.0549 11.3493 75.0549 11.616C75.0549 11.9147 75.2042 12.144 75.5029 12.304C75.8015 12.4533 76.2655 12.608 76.8949 12.768C77.5349 12.928 78.0629 13.0933 78.4789 13.264C78.8949 13.4347 79.2522 13.7013 79.5509 14.064C79.8602 14.416 80.0202 14.8853 80.0309 15.472C80.0309 15.984 79.8869 16.4427 79.5989 16.848C79.3215 17.2533 78.9162 17.5733 78.3829 17.808C77.8602 18.032 77.2469 18.144 76.5429 18.144ZM78.8149 7.104L76.4469 8.4L74.0629 7.104V5.472L76.4469 6.848L78.8149 5.472V7.104ZM90.1096 13.376C90.1096 13.696 90.0883 13.984 90.0456 14.24H83.5656C83.619 14.88 83.843 15.3813 84.2376 15.744C84.6323 16.1067 85.1176 16.288 85.6936 16.288C86.5256 16.288 87.1176 15.9307 87.4696 15.216H89.8856C89.6296 16.0693 89.139 16.7733 88.4136 17.328C87.6883 17.872 86.7976 18.144 85.7416 18.144C84.8883 18.144 84.1203 17.9573 83.4376 17.584C82.7656 17.2 82.2376 16.6613 81.8536 15.968C81.4803 15.2747 81.2936 14.4747 81.2936 13.568C81.2936 12.6507 81.4803 11.8453 81.8536 11.152C82.227 10.4587 82.7496 9.92533 83.4216 9.552C84.0936 9.17867 84.867 8.992 85.7416 8.992C86.5843 8.992 87.3363 9.17333 87.9976 9.536C88.6696 9.89867 89.187 10.416 89.5496 11.088C89.923 11.7493 90.1096 12.512 90.1096 13.376ZM87.7896 12.736C87.779 12.16 87.571 11.7013 87.1656 11.36C86.7603 11.008 86.2643 10.832 85.6776 10.832C85.123 10.832 84.6536 11.0027 84.2696 11.344C83.8963 11.6747 83.667 12.1387 83.5816 12.736H87.7896Z" fill="#91B2CB"/>
<path d="M0 19.6H90.6376V20.4H0V19.6Z" fill="#91B2CB"/>
<g clip-path="url(#clip0)">
<path d="M100.195 18.8621C100.132 18.9236 100.081 18.9972 100.046 19.0785C100.011 19.1598 99.9926 19.2473 99.9918 19.3358C99.9911 19.4244 100.008 19.5121 100.041 19.5941C100.075 19.676 100.124 19.7504 100.187 19.813C100.25 19.8756 100.324 19.9251 100.406 19.9587C100.488 19.9922 100.576 20.009 100.664 20.0083C100.753 20.0075 100.84 19.9891 100.922 19.9542C101.003 19.9192 101.077 19.8684 101.138 19.8048L106.586 14.3568C107.21 13.7313 107.561 12.8837 107.561 12.0001C107.561 11.1165 107.21 10.269 106.586 9.64344L101.138 4.19544C101.012 4.074 100.844 4.00681 100.669 4.00833C100.494 4.00984 100.327 4.07996 100.203 4.20356C100.08 4.32717 100.01 4.49438 100.008 4.66917C100.007 4.84397 100.074 5.01237 100.195 5.13811L105.643 10.5861C106.018 10.9612 106.229 11.4698 106.229 12.0001C106.229 12.5304 106.018 13.0391 105.643 13.4141L100.195 18.8621Z" fill="#91B2CB"/>
</g>
<defs>
<clipPath id="clip0">
<rect width="16" height="16" fill="white" transform="translate(96 4)"/>
</clipPath>
</defs>
</svg>
