<svg width="32" height="111" viewBox="0 0 32 111" fill="none" xmlns="http://www.w3.org/2000/svg">
<path d="M13.9177 70.6968C15.1134 79.0506 1.96824 93.5616 5.72633 103.614C8.16665 110.147 20.6773 112.433 24.7527 103.434C28.9744 94.1332 13.9177 70.6968 13.9177 70.6968Z" fill="#9FBAFF"/>
<path d="M14.0236 70.9745C14.1293 71.2113 14.292 71.3175 14.3164 71.44C14.3408 71.5624 14.3164 71.9299 14.3571 72.1667C14.3643 72.6718 14.3344 73.1768 14.2676 73.6774C14.1408 74.6725 13.934 75.6556 13.6494 76.6172C13.0984 78.5162 12.43 80.379 11.6483 82.1946C10.1435 85.8203 8.4759 89.348 7.31268 92.9818C6.72176 94.7556 6.33423 96.5912 6.1576 98.4531C6.07973 99.3512 6.10429 100.255 6.23081 101.148C6.36166 102.436 6.82424 103.667 7.57304 104.721C8.32184 105.775 9.33105 106.615 10.5014 107.158C12.0951 107.969 13.8557 108.394 15.6423 108.399C17.4386 108.43 19.2042 107.93 20.7198 106.961C22.2354 105.993 23.4341 104.599 24.1672 102.953C24.8145 101.218 25.0186 99.3482 24.761 97.514C24.5671 95.6021 24.1828 93.7144 23.614 91.8794C22.4469 88.176 20.9946 84.5694 19.2703 81.0922C18.4568 79.3446 17.5295 77.6053 16.594 75.9068C16.1222 75.0902 15.6423 74.2082 15.1461 73.3671L14.3977 72.1096L14.0236 71.489L13.8283 71.1786L13.7307 71.0235L13.6819 70.95C13.6819 70.95 13.6819 71.0072 13.7877 71.0235C13.8278 71.0365 13.8707 71.0388 13.9121 71.0303C13.9534 71.0217 13.9918 71.0025 14.0236 70.9745ZM13.8202 70.411C13.9072 70.4032 13.9946 70.4202 14.0724 70.46C14.1302 70.499 14.18 70.549 14.2188 70.607L14.2676 70.6887L14.3652 70.8438L14.5604 71.1541L14.9509 71.7829L15.7074 73.0323C16.2117 73.8489 16.6998 74.7227 17.1797 75.5719C18.1396 77.2786 19.0832 78.9935 19.9698 80.741C21.7858 84.2271 23.3279 87.8502 24.582 91.5773C25.2011 93.4623 25.6609 95.3963 25.9567 97.3588C26.31 99.4025 26.1478 101.502 25.4849 103.467C24.7072 105.433 23.383 107.134 21.6699 108.367C19.9181 109.577 17.8572 110.257 15.7318 110.326C13.6106 110.425 11.4987 109.987 9.59032 109.053C7.58721 108.12 5.96042 106.53 4.97811 104.545C4.51397 103.562 4.21964 102.507 4.10773 101.425C3.99404 100.378 3.99404 99.321 4.10773 98.2734C4.3186 96.2441 4.7832 94.2495 5.49057 92.3367C6.90216 88.6611 8.51802 85.0679 10.3305 81.574C11.144 79.8183 11.9981 78.0707 12.657 76.2742C12.9959 75.3813 13.2678 74.4641 13.4704 73.5305C13.568 73.0732 13.625 72.5995 13.6819 72.1341C13.6819 71.8891 13.6819 71.7013 13.6819 71.3991C13.6763 71.0645 13.7229 70.7311 13.8202 70.411Z" fill="black"/>
<path d="M8.87449 94.9088C8.87449 94.9088 5.89731 104.463 12.4455 105.655C18.9937 106.847 10.054 88.3025 8.87449 94.9088Z" fill="#E3ECFF"/>
<path d="M14.3166 1.38379C15.9434 12.8162 -2.03357 32.635 3.10736 46.4274C6.4506 55.41 23.5654 58.4804 29.1374 46.1742C34.9047 33.4516 14.3166 1.38379 14.3166 1.38379Z" fill="#9FBAFF"/>
<path d="M14.4628 1.7676C14.6092 2.1024 14.8288 2.23306 14.8614 2.41271C14.8939 2.59236 14.8614 3.07415 14.9102 3.40079C14.9268 4.09438 14.886 4.78815 14.7882 5.47496C14.6252 6.83397 14.3531 8.17756 13.9747 9.49262C13.2264 12.094 12.3052 14.6421 11.2172 17.1197C9.14289 22.0682 6.91405 26.9188 5.31157 31.8756C4.48493 34.3036 3.93905 36.8189 3.68469 39.372C3.58512 40.5998 3.62058 41.8348 3.79044 43.0548C3.86817 43.6505 3.98777 44.24 4.14836 44.8187C4.31344 45.3746 4.51173 45.92 4.74217 46.4519C5.81857 48.5578 7.55699 50.2485 9.68789 51.2617C11.8707 52.3671 14.2794 52.9485 16.7241 52.9602C19.1676 52.9748 21.567 52.3076 23.6547 51.033C25.7478 49.7045 27.3989 47.7798 28.397 45.5046C29.2776 43.1308 29.5571 40.5745 29.2104 38.0654C28.9272 35.4609 28.3822 32.8919 27.5836 30.3976C25.9987 25.3266 24.0159 20.3897 21.6536 15.6334C20.4877 13.2326 19.2648 10.8672 17.985 8.5372C17.3613 7.32319 16.7133 6.15273 16.0409 5.02583L15.0241 3.3028L14.5034 2.4862L14.2432 2.06157L14.1049 1.81659L14.0398 1.71043C14.0398 1.66144 14.0886 1.79209 14.1781 1.80843C14.2252 1.82601 14.2759 1.83149 14.3256 1.82436C14.3753 1.81723 14.4225 1.79771 14.4628 1.7676ZM14.1781 0.999993C14.2987 0.977616 14.4233 1.00089 14.5279 1.06532C14.6417 1.11432 14.7393 1.2858 14.7312 1.2613L14.7963 1.36746L14.9346 1.57978L15.203 2.01258L15.7236 2.82918L16.7648 4.59303C17.4481 5.74443 18.1233 6.89584 18.774 8.06357C20.0918 10.399 21.3852 12.7427 22.5972 15.1353C25.0847 19.9011 27.1927 24.857 28.9013 29.9566C29.7491 32.5412 30.3751 35.194 30.7723 37.8858C31.2549 40.6779 31.034 43.5469 30.1296 46.2314C29.1002 48.9468 27.2877 51.2924 24.9236 52.9684C22.5197 54.6146 19.6978 55.5381 16.7892 55.6305C13.8869 55.761 10.9982 55.1602 8.38638 53.8829C5.64279 52.6138 3.41099 50.4453 2.05781 47.734C1.45761 46.3769 1.06279 44.9374 0.886456 43.4631C0.709559 42.0324 0.690469 40.5864 0.829522 39.1515C1.11271 36.3756 1.74969 33.6476 2.72484 31.0345C4.51441 25.8491 7.07674 21.1047 9.35437 16.3357C9.93463 15.138 10.4769 13.9349 10.9813 12.7264C11.5263 11.5178 12.0469 10.2766 12.4861 9.07616C12.9507 7.85869 13.3152 6.60512 13.5761 5.32797C13.71 4.69441 13.8078 4.0537 13.869 3.40896C13.869 3.07415 13.9178 2.81284 13.9178 2.40454C13.9303 1.92552 14.0182 1.45149 14.1781 0.999993Z" fill="black"/>
<path d="M7.40225 34.4806C7.40225 34.4806 3.33505 47.5462 12.2829 49.1794C21.2307 50.8126 9.02913 25.498 7.40225 34.4806Z" fill="#E3ECFF"/>
</svg>
