<svg width="31" height="98" viewBox="0 0 31 98" fill="none" xmlns="http://www.w3.org/2000/svg">
<path d="M16.0081 0.57959C17.4154 10.4768 1.85429 27.6253 6.3038 39.5559C9.19151 47.3054 24.0042 49.992 28.8361 39.3435C33.8225 28.3276 16.0081 0.57959 16.0081 0.57959Z" fill="#9FBAFF"/>
<path d="M16.1303 0.914612C16.2604 1.19226 16.4475 1.31474 16.48 1.46173C16.5126 1.60872 16.48 2.04152 16.48 2.32733C16.5167 2.92322 16.5085 3.52102 16.4556 4.11568C16.2936 5.29387 16.0379 6.45716 15.691 7.59439C15.0359 9.84363 14.2427 12.0499 13.3158 14.2007C11.5343 18.496 9.5658 22.6688 8.18295 26.9641C7.48278 29.066 7.02428 31.2414 6.81637 33.4479C6.60323 35.5411 6.91357 37.6545 7.71929 39.5969C8.65342 41.4107 10.1533 42.8677 11.9898 43.7452C13.8803 44.7012 15.9658 45.2043 18.0825 45.2151C20.1933 45.2415 22.2696 44.6759 24.0776 43.5819C25.8762 42.4308 27.2922 40.7676 28.1448 38.8048C28.9076 36.7489 29.1507 34.5352 28.8524 32.3618C28.6183 30.098 28.1605 27.8631 27.4859 25.6902C26.1124 21.3014 24.3961 17.0282 22.3531 12.9105C21.3444 10.8445 20.2869 8.82745 19.1725 6.76962C18.6194 5.76521 18.05 4.76079 17.4643 3.76454L16.5776 2.27833L16.1303 1.54339L15.9025 1.17592L15.7886 0.99627L15.7317 0.906444C15.7317 0.857448 15.7723 0.971777 15.8537 0.988109C15.9022 0.999857 15.9529 0.999288 16.0012 0.986458C16.0495 0.973628 16.0938 0.948937 16.1303 0.914612ZM15.8862 0.245001C15.9899 0.236099 16.094 0.255868 16.1872 0.302163C16.259 0.345726 16.318 0.407743 16.358 0.481815L16.4231 0.571642L16.537 0.759456L16.7647 1.12693L17.2691 1.8782L18.1639 3.37258C18.7577 4.36066 19.3352 5.36508 19.9046 6.37766C21.0434 8.39466 22.1578 10.4607 23.2153 12.494C25.3616 16.6147 27.1812 20.8988 28.6572 25.3064C29.3942 27.5419 29.9385 29.8368 30.2841 32.1659C30.7035 34.5834 30.5134 37.0679 29.731 39.3928C28.8394 41.7405 27.2703 43.7677 25.2245 45.2151C23.1443 46.6448 20.6999 47.4467 18.1801 47.5261C15.6522 47.6471 13.1346 47.1276 10.8592 46.0154C8.48651 44.917 6.55818 43.0388 5.39285 40.6911C4.87057 39.517 4.53041 38.2695 4.38419 36.992C4.23123 35.7537 4.21214 34.5025 4.32725 33.2601C4.57326 30.8598 5.11986 28.5003 5.95412 26.2373C7.51593 21.7542 9.68781 17.6386 11.6482 13.4902C12.6325 11.4161 13.6249 9.34191 14.3976 7.21059C14.8046 6.15087 15.1203 5.05806 15.3412 3.94419C15.4567 3.40515 15.5409 2.85983 15.5934 2.311C15.5934 2.01702 15.6341 1.79654 15.6341 1.43723C15.6568 1.02921 15.7419 0.627117 15.8862 0.245001Z" fill="black"/>
<path d="M10.0211 29.2016C10.0211 29.2016 6.49894 40.5115 14.2429 41.8915C21.9868 43.2716 11.4284 21.4275 10.0211 29.2016Z" fill="#E3ECFF"/>
<path d="M9.46813 64.1846C10.4768 71.3053 -0.724268 83.6686 2.48068 92.2592C4.56309 97.8448 15.2273 99.7801 18.7495 92.1041C22.3042 84.1749 9.46813 64.1846 9.46813 64.1846Z" fill="#9FBAFF"/>
<path d="M9.5576 64.4213C9.64708 64.6255 9.78536 64.7071 9.80976 64.8215C9.83417 64.9358 9.80976 65.2379 9.80976 65.4421C9.82188 65.8734 9.79739 66.3051 9.73656 66.7323C9.62892 67.5804 9.45484 68.4186 9.21595 69.2393C8.75254 70.8599 8.18186 72.4476 7.50773 73.9919C6.21436 77.0704 4.82338 80.1 3.82285 83.1868C3.3198 84.7014 2.9896 86.2684 2.83859 87.8577C2.77579 88.6225 2.79488 89.3917 2.89553 90.1524C2.98368 90.8885 3.18969 91.6054 3.50561 92.2755C4.16313 93.5913 5.23959 94.649 6.56414 95.2806C7.92694 95.9606 9.42677 96.3181 10.9486 96.3259C12.4721 96.3329 13.9676 95.9144 15.2679 95.1173C16.5579 94.2779 17.5845 93.0887 18.2289 91.6876C18.7763 90.2043 18.9495 88.608 18.7332 87.0411C18.5652 85.4117 18.2355 83.8032 17.7489 82.2395C16.7616 79.0777 15.5239 76.0002 14.0478 73.0364C13.3238 71.5421 12.5673 70.064 11.762 68.6105C11.3634 67.8837 10.9486 67.1651 10.5337 66.4465L9.94805 65.3767L9.62267 64.8459L9.45999 64.5846L9.37864 64.4458L9.33797 64.3805C9.33797 64.3805 9.33797 64.4295 9.41931 64.4458C9.46684 64.4537 9.51563 64.4451 9.5576 64.4213ZM9.37864 63.9395C9.45401 63.9359 9.52919 63.9499 9.59827 63.9804C9.65116 64.0105 9.6937 64.0561 9.72029 64.111V64.1763L9.80976 64.307L9.97245 64.5765L10.306 65.1073L10.9486 66.177C11.3797 66.8956 11.762 67.6142 12.2094 68.341C13.0229 69.7945 13.8363 71.2563 14.5847 72.7506C16.1363 75.7225 17.4501 78.8136 18.5136 81.9945C19.043 83.5911 19.4349 85.2303 19.6849 86.8941C19.9851 88.6343 19.8481 90.4222 19.2863 92.0959C18.6226 93.7734 17.4933 95.2245 16.0326 96.2769C14.5297 97.2947 12.7689 97.8612 10.9567 97.9101C9.14821 97.9953 7.34794 97.6159 5.7263 96.8077C4.04522 96.0268 2.66929 94.7087 1.81366 93.0595C1.41742 92.2204 1.16445 91.3205 1.06529 90.3974C0.967819 89.5045 0.967819 88.6036 1.06529 87.7107C1.24189 85.9795 1.63827 84.2781 2.24478 82.6478C3.45267 79.5155 4.82942 76.4514 6.36892 73.4692C7.07661 71.9749 7.7843 70.4805 8.34557 68.9453C8.63245 68.1855 8.86088 67.4047 9.02886 66.6098C9.11021 66.2178 9.15901 65.7932 9.20782 65.4176C9.20782 65.2053 9.20782 65.0419 9.20782 64.7888C9.22041 64.4985 9.27804 64.212 9.37864 63.9395Z" fill="black"/>
<path d="M5.1569 84.8039C5.1569 84.8039 2.61897 92.9699 8.19916 93.9661C13.7794 94.9624 6.1737 79.202 5.1569 84.8039Z" fill="#E3ECFF"/>
</svg>
