<svg width="56" height="55" viewBox="0 0 56 55" fill="none" xmlns="http://www.w3.org/2000/svg">
<g clip-path="url(#clip0)">
<path d="M27.1229 22.6981C21.9755 22.4318 1.68102 29.0676 8.9949 45.1277C15.3039 59.0035 24.3165 48.4959 27.9734 47.5895C34.7009 45.902 37.9125 59.8271 47.2205 53.1242C57.3654 45.8125 45.1928 23.6336 27.1229 22.6981Z" fill="#B6CBDB"/>
<path d="M7.30737 25.8357C7.30737 25.8357 12.428 27.2613 12.3385 20.8852C12.2489 14.509 3.3371 8.71477 0.658177 13.6049C-2.02075 18.495 4.15622 26.196 7.30737 25.8357Z" fill="#B6CBDB"/>
<path d="M16.7426 18.7994C16.7426 18.7994 19.3589 22.4698 23.864 18.6293C28.3692 14.7888 25.9387 1.32038 19.9408 0.0917009C13.9428 -1.13698 9.59657 10.3755 16.7426 18.7994Z" fill="#B6CBDB"/>
<path d="M30.2718 16.5347C30.2718 16.5347 33.4386 22.8437 38.143 19.8157C42.8473 16.7876 43.4001 3.32587 38.143 1.76149C32.8858 0.197103 25.9367 7.96978 30.2718 16.5347Z" fill="#B6CBDB"/>
<path d="M42.7848 23.3965C44.2529 27.4943 48.1382 27.933 53.0148 24.3946C57.8915 20.8563 56.7546 12.1683 49.8816 13.3902C43.0086 14.6122 42.3551 22.1991 42.7848 23.3965Z" fill="#B6CBDB"/>
</g>
<defs>
<clipPath id="clip0">
<rect width="56" height="54.9481" fill="white"/>
</clipPath>
</defs>
</svg>
