<svg width="58" height="57" viewBox="0 0 58 57" fill="none" xmlns="http://www.w3.org/2000/svg">
<g clip-path="url(#clip0)">
<path d="M27.6421 23.6727C22.3961 23.4013 1.71315 30.1641 9.16704 46.5316C15.5968 60.6731 24.7819 49.9643 28.5088 49.0406C35.3651 47.3208 38.6382 61.5124 48.1244 54.6812C58.4636 47.2296 46.0579 24.6261 27.6421 23.6727Z" fill="#B6CBDB"/>
<path d="M7.44714 26.8705C7.44714 26.8705 12.6658 28.3235 12.5745 21.8252C12.4833 15.327 3.40087 9.42186 0.670667 14.4056C-2.05954 19.3893 4.23567 27.2378 7.44714 26.8705Z" fill="#B6CBDB"/>
<path d="M17.063 19.6994C17.063 19.6994 19.7294 23.44 24.3208 19.526C28.9122 15.6121 26.4352 1.88577 20.3224 0.633568C14.2097 -0.618631 9.78021 11.1142 17.063 19.6994Z" fill="#B6CBDB"/>
<path d="M30.8512 17.3913C30.8512 17.3913 34.0787 23.8211 38.8731 20.735C43.6675 17.649 44.2309 3.92956 38.8731 2.33523C33.5153 0.740899 26.4332 8.66237 30.8512 17.3913Z" fill="#B6CBDB"/>
<path d="M43.6035 24.3842C45.0997 28.5605 49.0593 29.0076 54.0293 25.4015C58.9994 21.7955 57.8407 12.9411 50.8361 14.1865C43.8315 15.4318 43.1655 23.164 43.6035 24.3842Z" fill="#B6CBDB"/>
</g>
<defs>
<clipPath id="clip0">
<rect width="57.072" height="56" fill="white" transform="translate(0 0.540039)"/>
</clipPath>
</defs>
</svg>
